
<svg xmlns="http://www.w3.org/2000/svg" viewBox="0 0 55 55">
	<style type="text/css">
		.st0{fill:#fff;stroke:#000;stroke-miterlimit:10;}
		.st1{fill:url(#SVGID_1_);}
		.st2{fill:url(#SVGID_2_);}
		.st3{fill:url(#SVGID_3_);}
	</style>
	<linearGradient id="SVGID_1_" gradientUnits="userSpaceOnUse" x1="5.0923" y1="9.9544" x2="45.2472" y2="41.3963">
		<stop  offset="0" style="stop-color:#0ff"/>
		<stop  offset="1" style="stop-color:#03EBEB;stop-opacity:0"/>
	</linearGradient>
	<linearGradient id="SVGID_2_" gradientUnits="userSpaceOnUse" x1="48.7492" y1="7.9055" x2="11.2565" y2="42.4786">
		<stop  offset="0" style="stop-color:#D400EF"/>
		<stop  offset="0.9992" style="stop-color:#C702E0;stop-opacity:0"/>
	</linearGradient>
	<linearGradient id="SVGID_3_" gradientUnits="userSpaceOnUse" x1="27.4702" y1="50.148" x2="27.5238" y2="9.377">
		<stop  offset="0" style="stop-color:#5560FF"/>
		<stop  offset="1" style="stop-color:#535DF6;stop-opacity:0"/>
	</linearGradient>
	<path class="st0" d="M46.9,53H8.1C4.8,53,2,50.2,2,46.9V8.1C2,4.8,4.8,2,8.1,2h38.8C50.2,2,53,4.8,53,8.1v38.8
		C53,50.2,50.2,53,46.9,53z"/>
	<path class="st1" d="M46.9,53H8.1C4.8,53,2,50.2,2,46.9V8.1C2,4.8,4.8,2,8.1,2h38.8C50.2,2,53,4.8,53,8.1v38.8
		C53,50.2,50.2,53,46.9,53z"/>
	<path class="st2" d="M46.9,53H8.1C4.8,53,2,50.2,2,46.9V8.1C2,4.8,4.8,2,8.1,2h38.8C50.2,2,53,4.8,53,8.1v38.8
		C53,50.2,50.2,53,46.9,53z"/>
	<path class="st3" d="M46.9,53H8.1C4.8,53,2,50.2,2,46.9V8.1C2,4.8,4.8,2,8.1,2h38.8C50.2,2,53,4.8,53,8.1v38.8
		C53,50.2,50.2,53,46.9,53z"/>
	<g>
		<path d="M46.9,2H8.1C4.8,2,2,4.8,2,8.1v38.8C2,50.2,4.8,53,8.1,53h38.8c3.4,0,6.1-2.8,6.1-6.1V8.1C53,4.8,50.2,2,46.9,2z
			 M27.5,49.3c-12,0-21.8-9.8-21.8-21.8S15.5,5.7,27.5,5.7s21.8,9.8,21.8,21.8S39.5,49.3,27.5,49.3z"/>
		<path d="M27.5,7.7c-10.9,0-19.8,8.9-19.8,19.8c0,10.9,8.9,19.8,19.8,19.8c10.9,0,19.8-8.9,19.8-19.8C47.3,16.6,38.4,7.7,27.5,7.7z
			 M16,35.7c0,0.8-0.7,1.5-1.5,1.5S13,36.5,13,35.7V19.3c0-0.8,0.7-1.5,1.5-1.5s1.5,0.7,1.5,1.5V35.7z M21.4,38.6
			c0,0.8-0.7,1.5-1.5,1.5s-1.5-0.7-1.5-1.5V16.4c0-0.8,0.7-1.5,1.5-1.5s1.5,0.7,1.5,1.5V38.6z M26.8,34.7c0,0.8-0.7,1.5-1.5,1.5
			s-1.5-0.7-1.5-1.5V20.3c0-0.8,0.7-1.5,1.5-1.5s1.5,0.7,1.5,1.5V34.7z M32.2,31.8c0,0.8-0.7,1.5-1.5,1.5s-1.5-0.7-1.5-1.5v-8.7
			c0-0.8,0.7-1.5,1.5-1.5s1.5,0.7,1.5,1.5V31.8z M37.6,35.7c0,0.8-0.7,1.5-1.5,1.5s-1.5-0.7-1.5-1.5V19.3c0-0.8,0.7-1.5,1.5-1.5
			s1.5,0.7,1.5,1.5V35.7z M43,21.2v12.6c0,0.8-0.7,1.5-1.5,1.5S40,34.6,40,33.8V21.2c0-0.8,0.7-1.5,1.5-1.5S43,20.4,43,21.2z"/>
	</g>
</svg>
