<svg xmlns="http://www.w3.org/2000/svg" width="0" height="0">

	<svg id="negative-corner" viewBox="0 0 6 6">
		<path fill="#294A6B" d="M0,6h6V0C6,3.3,3.3,6,0,6z"/>
	</svg>

	<svg id="icon-rewind" viewBox="0 0 13 13">
		<path fill="#333" d="M6.4,10.4V2.6c0-0.3-0.2-0.5-0.4-0.3L1,6.2C0.8,6.3,0.8,6.7,1,6.8l5,3.9C6.2,10.9,6.4,10.7,6.4,10.4z"/>
		<path fill="#333" d="M12,10.4V2.6c0-0.3-0.2-0.5-0.4-0.3l-5,3.9c-0.2,0.1-0.2,0.5,0,0.6l5,3.9C11.7,10.9,12,10.7,12,10.4z"/>
	</svg>

	<svg id="icon-forward" viewBox="0 0 13 13">
		<path fill="#333" d="M6.6,2.6v7.8c0,0.3,0.2,0.5,0.4,0.3l5-3.9c0.2-0.1,0.2-0.5,0-0.7L7,2.3C6.8,2.1,6.6,2.3,6.6,2.6z"/>
		<path fill="#333" d="M1,2.6v7.8c0,0.3,0.2,0.5,0.4,0.3l5-3.9c0.2-0.1,0.2-0.5,0-0.7l-5-3.9C1.3,2.1,1,2.3,1,2.6z"/>
	</svg>

	<svg id="icon-stop" viewBox="0 0 13 13">
		<path fill="#333" d="M10.5,11h-8C2.2,11,2,10.8,2,10.5v-8C2,2.2,2.2,2,2.5,2h8C10.8,2,11,2.2,11,2.5v8C11,10.8,10.8,11,10.5,11z"/>
	</svg>

	<svg id="icon-play" viewBox="0 0 13 13">
		<path fill="#333" d="M2,1.7v9.6c0,0.4,0.4,0.6,0.7,0.4l8.4-4.8c0.3-0.2,0.3-0.6,0-0.8L2.7,1.3C2.4,1.1,2,1.4,2,1.7z"/>
	</svg>

	<svg id="icon-record" viewBox="0 0 13 13">
		<circle fill="#f00" cx="6.5" cy="6.5" r="4.5"/>
	</svg>

	<svg id="icon-loop" viewBox="0 0 13 13">
		<path fill="#333" d="M9.6,3.2L8,1.7c0,0-0.1,0-0.1,0c0,0,0,0,0,0.1V3H4.5C2.6,3,1,4.6,1,6.5c0,1.6,1.1,3,2.6,3.4l1.5,1.4c0,0,0.1,0,0.1,0
			c0,0,0,0,0-0.1V10h3.2c1.9,0,3.5-1.6,3.5-3.5C12,4.9,11,3.6,9.6,3.2z M10.1,8.1c-0.4,0.4-1,0.7-1.6,0.7H5.3V7.5
			c0-0.1-0.1-0.1-0.1-0.1L3.9,8.7c-0.4-0.1-0.7-0.3-1-0.6c-0.4-0.4-0.7-1-0.7-1.6s0.2-1.2,0.7-1.6c0.4-0.4,1-0.7,1.6-0.7h3.4v1.3
			C7.9,5.6,8,5.6,8,5.5l1.2-1.2c0.3,0.1,0.6,0.3,0.8,0.5c0.4,0.4,0.7,1,0.7,1.6S10.5,7.7,10.1,8.1z"/>
	</svg>

	<svg id="icon-metronome" viewBox="0 0 13 13">
		<style type="text/css">
			.st0{fill:none;stroke:#333;stroke-width:1;}
			.st1{fill:#333;stroke:#333;stroke-width:1;}
		</style>
		<circle class="st0" cx="3" cy="6.5" r="2.5"/>
		<circle class="st1" cx="10" cy="6.5" r="2.5"/>
	</svg>

	<svg id="icon-pencil" viewBox="0 0 13 13">
		<style type="text/css">
			.st0{fill:#333;}
		</style>
		<polygon class="st0" points="3,10 3,8 10,1 12,3 5,10 "/>
		<rect class="st0" x="1" y="11" width="11" height="1"/>
	</svg>

	<svg id="icon-piano-keys" viewBox="0 0 13 13">
		<style type="text/css">
			.st0{fill:#333;}
		</style>
		<path class="st0" d="M11,1h-1H9H8H7H6H5H4H3H2H1v1v9v1h1h2h1h3h1h2h1v-1V2V1H11z M2,11V2h1v6h1v3H2z M5,11V8h1V2h1v6h1v3H5z M11,11H9V8h1V2h1V11 z"/>
	</svg>

	<svg id="icon-loopspan-start" viewBox="0 0 13 13">
		<style type="text/css">
			.st0{fill:#466788;stroke:#132537;stroke-width:1;}
		</style>
		<polyline class="st0" points="1,1 9,6.5 1,12 "/>
	</svg>

	<svg id="icon-loopspan-end" viewBox="0 0 13 13">
		<style type="text/css">
			.st0{fill:#466788;stroke:#132537;stroke-width:1;}
		</style>
		<polyline class="st0" points="12,12 4,6.5 12,1 "/>
	</svg>

	<svg id="icon-arrow-right" viewBox="0 0 13 13">
		<style type="text/css">
			.st0{fill:#333;}
		</style>
		<path class="st0" d="M4,3.2v6.5C4,10,4.4,10.2,4.5,10l5.6-3.3c0.2-0.2,0.2-0.4,0-0.5L4.5,3C4.4,2.9,4,3,4,3.2z"/>
	</svg>

	<svg id="icon-sidebar-arrow" viewBox="0 0 13 13">
		<style type="text/css">
			.st0{fill:#9db9d4;}
		</style>
		<path class="st0" d="M4,3.2v6.5C4,10,4.4,10.2,4.5,10l5.6-3.3c0.2-0.2,0.2-0.4,0-0.5L4.5,3C4.4,2.9,4,3,4,3.2z"/>
	</svg>

	<svg id="icon-red-cancel" viewBox="0 0 17 17">
		<polygon fill="#d66" points="16,13.9 10.6,8.5 16,3.1 13.9,1 8.5,6.4 3.1,1 1,3.1 6.4,8.5 1,13.9 3.1,16 8.5,10.6 13.9,16"/>
	</svg>

	<svg id="icon-green-check" viewBox="0 0 17 17">
		<polygon fill="#0a0" points="17.1,4 15,1.9 6,10.9 2,6.9 -0.1,9 6,15.1"/>
	</svg>

	<svg id="icon-sounds" viewBox="0 0 17 17">
		<path fill="#182C40" d="M16,0.9v11c0,1.3-1.5,2.3-3.3,2.3s-3.3-1-3.3-2.3s1.5-2.3,3.3-2.3c0.9,0,1.7,0.3,2.3,0.7V4.9L7.6,6.5v7.2
			c0,1.3-1.5,2.3-3.3,2.3S1,15,1,13.7c0-1.3,1.5-2.3,3.3-2.3c0.9,0,1.7,0.3,2.3,0.7V3L16,0.9z"/>
	</svg>

	<svg id="icon-drums" viewBox="0 0 17 17">
		<path fill="#182C40" d="M9.9,3.1c0-0.5-1.6-0.9-3.8-0.9V0.9H4.8v1.3C2.7,2.3,1,2.7,1,3.1S2.7,4,4.8,4.1v2.5H1v1.3h1.3v2.5H1v1.3h3.8
			v2.8l-2.5,1l0.5,0.6l2.7-0.7l2.7,0.7l0.5-0.6l-2.5-1v-2.8h1.8C7.7,11,7.6,10.4,7.6,9.8c0-1.1,0.3-2.2,0.7-3.1H6.1V4.1
			C8.2,4,9.9,3.6,9.9,3.1z"/>
		<path fill="#182C40" d="M16,3.6c-0.4-0.1-0.8-0.1-1.3-0.1c-3.5,0-6.3,2.8-6.3,6.3s2.8,6.3,6.3,6.3c0.4,0,0.9,0,1.3-0.1V3.6z"/>
	</svg>

	<svg id="icon-instruments" viewBox="0 0 17 17">
		<path fill="#182C40" d="M9.1,12.2c0-0.4,0.1-0.7,0.4-0.9c0.2-0.2,1.1-0.3,1.8-1c0.4-0.4,0.5-0.9,0.4-1.5c-0.1-0.4-0.4-0.9-0.9-1.4
			L13.9,4c0.7,0,1.6-0.9,2.1-1.4c-0.2-0.7-0.9-1.4-1.6-1.6C13.9,1.4,13,2.5,13,3.1L9.7,6.2c-0.5-0.5-1-0.8-1.4-0.8
			c-0.6-0.1-1.2,0-1.6,0.4C6,6.5,5.9,7.3,5.7,7.5C5.5,7.8,5.2,7.9,4.8,7.9C2.8,8,1,9.3,1,11.4c0,1.5,3,4.5,4.5,4.5
			C7.7,15.9,9,14.2,9.1,12.2z M8.9,8c0.5,0.5,0.5,1.2,0,1.7c-0.5,0.5-1.2,0.5-1.7,0C6.8,9.2,6.8,8.5,7.3,8C7.7,7.6,8.5,7.6,8.9,8z
			 M5.4,13.6l-2-2l0.4-0.4l2,2L5.4,13.6z"/>
	</svg>

	<svg id="icon-audio_fx" viewBox="0 0 17 17">
		<path fill="#182C40" d="M14.8,6.6C14.8,6.3,15,6,15.4,6S16,6.3,16,6.6v3.5c0,0.3-0.3,0.6-0.6,0.6s-0.6-0.3-0.6-0.6V6.6z M12.8,5.6
			c0-0.3,0.3-0.6,0.6-0.6S14,5.3,14,5.6v5.7c0,0.3-0.3,0.6-0.6,0.6s-0.6-0.3-0.6-0.6V5.6z M10.9,2.4c0-0.3,0.3-0.6,0.6-0.6
			s0.6,0.3,0.6,0.6v12.1c0,0.3-0.3,0.6-0.6,0.6s-0.6-0.3-0.6-0.6V2.4z M8.9,5.3c0-0.3,0.3-0.6,0.6-0.6s0.6,0.3,0.6,0.6v6.3
			c0,0.3-0.3,0.6-0.6,0.6S8.9,12,8.9,11.7V5.3z M6.9,4c0-0.3,0.3-0.6,0.6-0.6S8.1,3.7,8.1,4v8.6c0,0.3-0.3,0.6-0.6,0.6
			S6.9,13,6.9,12.6V4z M4.9,5.6C4.9,5.3,5.2,5,5.5,5s0.6,0.3,0.6,0.6V11c0,0.3-0.3,0.6-0.6,0.6S4.9,11.4,4.9,11V5.6z M3,3.1
			c0-0.3,0.3-0.6,0.6-0.6s0.6,0.3,0.6,0.6v10.5c0,0.3-0.3,0.6-0.6,0.6S3,13.9,3,13.6C3,13.6,3,3.1,3,3.1z M1,6.3C1,6,1.3,5.7,1.6,5.7
			S2.2,6,2.2,6.3v4.3c0,0.3-0.3,0.6-0.6,0.6S1,11,1,10.7C1,10.7,1,6.3,1,6.3z"/>
	</svg>

	<svg id="icon-arrangement" viewBox="0 0 17 17">
		<rect x="2" y="2" fill="#182C40" width="13" height="3"/>
		<rect x="2" y="7" fill="#182C40" width="13" height="3"/>
		<rect x="2" y="12" fill="#182C40" width="13" height="3"/>
	</svg>
	
	<svg id="icon-session" viewBox="0 0 17 17">
		<rect x="2" y="2" fill="#182C40" width="3" height="13"/>
		<rect x="7" y="2" fill="#182C40" width="3" height="13"/>
		<rect x="12" y="2" fill="#182C40" width="3" height="13"/>
	</svg>

	<svg id="icon-arrow_up" viewBox="0 0 17 17">
		<path fill="#182C40" d="M2.9,14h11.2c0.4,0,0.7-0.5,0.5-0.8L9,3.3C8.8,2.9,8.2,2.9,8,3.3l-5.6,9.9C2.2,13.5,2.5,14,2.9,14z"/>
	</svg>

	<svg id="icon-audio" viewBox="0 0 17 17">
		<path fill="#9db9d4" d="M9.7,4.4C9.5,4.1,9.1,4.1,8.8,4.3C8.7,4.4,8.6,4.5,8.6,4.6l-1.9,7L5.1,8.3C5,8.1,4.8,7.9,4.6,7.9H2v1.2h2.2
			l2.1,4.5C6.4,13.9,6.7,14,6.9,14H7c0.3,0,0.5-0.2,0.5-0.4l2-7.4l2,2.7c0.1,0.2,0.3,0.2,0.5,0.2h3V7.9h-2.7L9.7,4.4z"/>
	</svg>

	<svg id="icon-pad-play" viewBox="0 0 10 10">
		<path fill="#94abc3" d="M2,1.3v7.4C2,9,2.4,9.2,2.6,9L9,5.3c0.2-0.2,0.2-0.5,0-0.6L2.6,1C2.4,0.9,2,1.1,2,1.3z"/>
	</svg>

	<svg id="icon-pad-stop" viewBox="0 0 10 10">
		<path fill="#94abc3" d="M8,9H2C1.5,9,1,8.6,1,8V2c0-0.5,0.5-1,1-1h6c0.6,0,1,0.5,1,1v6C9,8.6,8.6,9,8,9z"/>
	</svg>



	<svg id="icon-toggle-headphones" viewBox="0 0 11 11">
		<style type="text/css">
			.st0{fill:#333;}
		</style>
		<path class="st0" d="M9.3,5.6c0-2.1-1.7-3.8-3.8-3.8S1.7,3.5,1.7,5.6c0,0.9,0.4,1.8,1,2.5c0.1,0.8,0.9,1.4,2,1.7V6C4.1,6.2,3.6,6.4,3.2,6.7
			C3,6.4,2.9,6,2.9,5.6C2.9,4.2,4.1,3,5.5,3c1.4,0,2.6,1.2,2.6,2.6C8.1,6,8,6.4,7.8,6.7C7.4,6.4,6.9,6.2,6.3,6v3.8
			c1.1-0.2,1.9-0.9,2-1.7C9,7.4,9.3,6.5,9.3,5.6z"/>
	</svg>

	<svg id="icon-toggle-io" viewBox="0 0 11 11">
		<style type="text/css">
			.st0{fill:none;stroke:#333333;}
			.st1{fill:#333333;}
		</style>
		<circle class="st0" cx="7.5" cy="5.5" r="2"/>
		<rect x="1" y="3" class="st1" width="1" height="5"/>
		<rect x="3" y="5" class="st1" width="1" height="1"/>
	</svg>

	<svg id="icon-toggle-sends" viewBox="0 0 11 11">
		<style type="text/css">
			.st0{fill:none;stroke:#333333;}
		</style>
		<path class="st0" d="M3.3,8.5h2.3c0.8,0,1.5-0.7,1.5-1.5S6.5,5.5,5.7,5.5S4,4.8,4,4s0.7-1.5,1.5-1.5h1.9"/>
	</svg>

	<svg id="icon-toggle-returns" viewBox="0 0 11 11">
		<style type="text/css">
			.st0{fill:none;stroke:#333333;}
		</style>
		<path class="st0" d="M3.5,9V2.5h2C6.3,2.5,7,3.2,7,4S6.3,5.5,5.5,5.5h-2"/>
		<line class="st0" x1="7" y1="9" x2="3.6" y2="5.6"/>
	</svg>

	<svg id="icon-toggle-mixers" viewBox="0 0 11 11">
		<style type="text/css">
			.st0{fill:none;stroke:#333333;}
		</style>
		<polyline class="st0" points="3,8.4 3,3.3 5.5,5.8 8,3.3 8,8.4 "/>
	</svg>


	<svg id="icon-pad-matrix" viewBox="0 0 20 40">
		<style type="text/css">
			.st0{fill:#557fa9;}
			.st1{fill:#4773a0;}
		</style>
		<rect class="st0" x="0" y="0" width="4" height="4"/>
		<rect class="st0" x="5" y="0" width="4" height="4"/>
		<rect class="st0" x="10" y="0" width="4" height="4"/>
		<rect class="st0" x="15" y="0" width="4" height="4"/>
		<rect class="st0" x="0" y="5" width="4" height="4"/>
		<rect class="st0" x="5" y="5" width="4" height="4"/>
		<rect class="st0" x="10" y="5" width="4" height="4"/>
		<rect class="st0" x="15" y="5" width="4" height="4"/>
		<rect class="st0" x="0" y="10" width="4" height="4"/>
		<rect class="st0" x="5" y="10" width="4" height="4"/>
		<rect class="st0" x="10" y="10" width="4" height="4"/>
		<rect class="st0" x="15" y="10" width="4" height="4"/>
		<rect class="st0" x="0" y="15" width="4" height="4"/>
		<rect class="st0" x="5" y="15" width="4" height="4"/>
		<rect class="st0" x="10" y="15" width="4" height="4"/>
		<rect class="st0" x="15" y="15" width="4" height="4"/>
		<rect class="st1" x="0" y="20" width="4" height="4"/>
		<rect class="st1" x="5" y="20" width="4" height="4"/>
		<rect class="st1" x="10" y="20" width="4" height="4"/>
		<rect class="st1" x="15" y="20" width="4" height="4"/>
		<rect class="st1" x="0" y="25" width="4" height="4"/>
		<rect class="st1" x="5" y="25" width="4" height="4"/>
		<rect class="st1" x="10" y="25" width="4" height="4"/>
		<rect class="st1" x="15" y="25" width="4" height="4"/>
		<rect class="st1" x="0" y="30" width="4" height="4"/>
		<rect class="st1" x="5" y="30" width="4" height="4"/>
		<rect class="st1" x="10" y="30" width="4" height="4"/>
		<rect class="st1" x="15" y="30" width="4" height="4"/>
		<rect class="st1" x="0" y="35" width="4" height="4"/>
		<rect class="st1" x="5" y="35" width="4" height="4"/>
		<rect class="st1" x="10" y="35" width="4" height="4"/>
		<rect class="st1" x="15" y="35" width="4" height="4"/>
	</svg>

	<svg id="icon-clip-play" viewBox="0 0 19 19">
		<style type="text/css">
			.st0{fill:#33446680;}
		</style>
		<path class="st0" d="M4.7,4.5v10c0,0.4,0.5,0.7,0.8,0.4l8.6-5c0.3-0.3,0.3-0.7,0-0.8l-8.6-5C5.3,3.9,4.7,4.2,4.7,4.5z"/>
	</svg>

	<svg id="icon-clip-stop" viewBox="0 0 19 19">
		<style type="text/css">
			.st0{fill:#33446680;}
		</style>
		<path class="st0" d="M14,15H5c-0.5,0-1-0.4-1-1V5c0-0.5,0.5-1,1-1h9c0.6,0,1,0.5,1,1v9C15,14.6,14.6,15,14,15z"/>
	</svg>

	<svg id="icon-clip-record" viewBox="0 0 19 19">
		<style type="text/css">
			.st0{fill:#33446680;}
		</style>
		<circle class="st0" cx="9.5" cy="9.5" r="4.5"/>
	</svg>

	<svg id="icon-pie-playing" viewBox="0 0 15 495">
		<style type="text/css">
			.st0{fill:#074A6B;}
			.st1{fill:#10A4EE;}
		</style>
		<circle class="st0" cx="7.5" cy="7.5" r="6.5"/>
		<circle class="st0" cx="7.5" cy="22.5" r="6.5"/>
		<circle class="st0" cx="7.5" cy="37.5" r="6.5"/>
		<circle class="st0" cx="7.5" cy="52.5" r="6.5"/>
		<circle class="st0" cx="7.5" cy="67.5" r="6.5"/>
		<circle class="st0" cx="7.5" cy="82.5" r="6.5"/>
		<circle class="st0" cx="7.5" cy="97.5" r="6.5"/>
		<circle class="st0" cx="7.5" cy="112.5" r="6.5"/>
		<circle class="st0" cx="7.5" cy="142.5" r="6.5"/>
		<circle class="st0" cx="7.5" cy="157.5" r="6.5"/>
		<circle class="st0" cx="7.5" cy="172.5" r="6.5"/>
		<circle class="st0" cx="7.5" cy="187.5" r="6.5"/>
		<circle class="st0" cx="7.5" cy="202.5" r="6.5"/>
		<circle class="st0" cx="7.5" cy="217.5" r="6.5"/>
		<circle class="st0" cx="7.5" cy="232.5" r="6.5"/>
		<circle class="st0" cx="7.5" cy="127.5" r="6.5"/>
		<circle class="st0" cx="7.5" cy="247.5" r="6.5"/>
		<circle class="st0" cx="7.5" cy="262.5" r="6.5"/>
		<circle class="st0" cx="7.5" cy="277.5" r="6.5"/>
		<circle class="st0" cx="7.5" cy="292.5" r="6.5"/>
		<circle class="st0" cx="7.5" cy="307.5" r="6.5"/>
		<circle class="st0" cx="7.5" cy="322.5" r="6.5"/>
		<circle class="st0" cx="7.5" cy="337.5" r="6.5"/>
		<circle class="st0" cx="7.5" cy="352.5" r="6.5"/>
		<circle class="st0" cx="7.5" cy="367.5" r="6.5"/>
		<circle class="st0" cx="7.5" cy="382.5" r="6.5"/>
		<circle class="st0" cx="7.5" cy="397.5" r="6.5"/>
		<circle class="st0" cx="7.5" cy="412.5" r="6.5"/>
		<circle class="st0" cx="7.5" cy="427.5" r="6.5"/>
		<circle class="st0" cx="7.5" cy="442.5" r="6.5"/>
		<circle class="st0" cx="7.5" cy="457.5" r="6.5"/>
		<circle class="st0" cx="7.5" cy="472.5" r="6.5"/>
		<circle class="st0" cx="7.5" cy="487.5" r="6.5"/>
		<circle class="st1" cx="7.5" cy="7.5" r="5.32"/>
		<path class="st1" d="M7.5,17.18c-2.94,0-5.32,2.38-5.32,5.32s2.38,5.32,5.32,5.32s5.32-2.38,5.32-5.32c0-2.58-1.84-4.73-4.28-5.21 L7.5,22.5V17.18z"/>
		<path class="st1" d="M7.5,32.18c-2.94,0-5.32,2.38-5.32,5.32s2.38,5.32,5.32,5.32s5.32-2.38,5.32-5.32c0-2.22-1.37-4.14-3.31-4.93 L7.5,37.5V32.18z"/>
		<path class="st1" d="M7.5,47.18c-2.94,0-5.32,2.38-5.32,5.32s2.38,5.32,5.32,5.32s5.32-2.38,5.32-5.32c0-1.84-0.93-3.46-2.35-4.42 L7.5,52.5V47.18z"/>
		<path class="st1" d="M7.5,62.18c-2.94,0-5.32,2.38-5.32,5.32s2.38,5.32,5.32,5.32s5.32-2.38,5.32-5.32c0-1.48-0.6-2.81-1.57-3.78 L7.5,67.5V62.18z"/>
		<path class="st1" d="M7.5,77.18c-2.94,0-5.32,2.38-5.32,5.32s2.38,5.32,5.32,5.32s5.32-2.38,5.32-5.32c0-1.1-0.33-2.13-0.91-2.98 L7.5,82.5V77.18z"/>
		<path class="st1" d="M7.5,92.18c-2.94,0-5.32,2.38-5.32,5.32s2.38,5.32,5.32,5.32s5.32-2.38,5.32-5.32c0-0.73-0.15-1.43-0.41-2.07 L7.5,97.5V92.18z"/>
		<path class="st1" d="M7.5,107.18c-2.94,0-5.32,2.38-5.32,5.32s2.38,5.32,5.32,5.32s5.32-2.38,5.32-5.32c0-0.35-0.04-0.71-0.11-1.04 L7.5,112.5V107.18z"/>
		<path class="st1" d="M7.5,122.18c-2.94,0-5.32,2.38-5.32,5.32s2.38,5.32,5.32,5.32s5.32-2.38,5.32-5.32H7.5V122.18z"/>
		<path class="st1" d="M7.5,137.18c-2.94,0-5.32,2.38-5.32,5.32s2.38,5.32,5.32,5.32c2.58,0,4.73-1.83,5.21-4.28l-5.27-1.04 L7.5,137.18z"/>
		<path class="st1" d="M7.5,152.18c-2.94,0-5.32,2.38-5.32,5.32s2.38,5.32,5.32,5.32c2.22,0,4.14-1.37,4.93-3.31l-5.12-2.01 L7.5,152.18z"/>
		<path class="st1" d="M11.92,175.47c-0.96,1.42-2.58,2.35-4.42,2.35c-2.94,0-5.32-2.38-5.32-5.32s2.38-5.32,5.32-5.32v5.32 L11.92,175.47z"/>
		<path class="st1" d="M11.26,191.26c-0.96,0.97-2.29,1.56-3.76,1.56c-2.94,0-5.32-2.38-5.32-5.32s2.38-5.32,5.32-5.32v5.32 L11.26,191.26z"/>
		<path class="st1" d="M10.48,206.91c-0.85,0.58-1.88,0.91-2.98,0.91c-2.94,0-5.32-2.38-5.32-5.32s2.38-5.32,5.32-5.32v5.32 L10.48,206.91z"/>
		<path class="st1" d="M9.51,222.43c-0.61,0.25-1.3,0.39-2.01,0.39c-2.94,0-5.32-2.38-5.32-5.32s2.38-5.32,5.32-5.32v5.32L9.51,222.43 z"/>
		<path class="st1" d="M7.5,252.82c-2.94,0-5.32-2.38-5.32-5.32s2.38-5.32,5.32-5.32V252.82z"/>
		<path class="st1" d="M8.54,237.71c-0.33,0.07-0.69,0.11-1.04,0.11c-2.94,0-5.32-2.38-5.32-5.32s2.38-5.32,5.32-5.32v5.32 L8.54,237.71z"/>
		<path class="st1" d="M6.46,267.71c-2.45-0.48-4.28-2.64-4.28-5.21c0-2.94,2.38-5.32,5.32-5.32v5.32L6.46,267.71z"/>
		<path class="st1" d="M5.49,282.43c-1.94-0.79-3.31-2.71-3.31-4.93c0-2.94,2.38-5.32,5.32-5.32v5.32L5.49,282.43z"/>
		<path class="st1" d="M4.53,296.92c-1.42-0.96-2.35-2.58-2.35-4.42c0-2.94,2.38-5.32,5.32-5.32v5.32L4.53,296.92z"/>
		<path class="st1" d="M3.74,311.26c-0.97-0.96-1.56-2.29-1.56-3.76c0-2.94,2.38-5.32,5.32-5.32v5.32L3.74,311.26z"/>
		<path class="st1" d="M3.09,325.48c-0.58-0.85-0.91-1.88-0.91-2.98c0-2.94,2.38-5.32,5.32-5.32v5.32L3.09,325.48z"/>
		<path class="st1" d="M2.57,339.51c-0.25-0.61-0.39-1.3-0.39-2.01c0-2.94,2.38-5.32,5.32-5.32v5.32L2.57,339.51z"/>
		<path class="st1" d="M2.29,353.54c-0.07-0.33-0.11-0.69-0.11-1.04c0-2.94,2.38-5.32,5.32-5.32v5.32L2.29,353.54z"/>
		<path class="st1" d="M2.18,367.5c0-2.94,2.38-5.32,5.32-5.32v5.32H2.18z"/>
		<path class="st1" d="M2.28,381.5c0.47-2.46,2.64-4.31,5.22-4.31v5.32L2.28,381.5z"/>
		<path class="st1" d="M2.57,395.49c0.79-1.94,2.71-3.31,4.93-3.31v5.32L2.57,395.49z"/>
		<path class="st1" d="M3.08,409.53c0.96-1.42,2.58-2.35,4.42-2.35v5.32L3.08,409.53z"/>
		<path class="st1" d="M3.74,423.74c0.96-0.97,2.29-1.56,3.76-1.56v5.32L3.74,423.74z"/>
		<path class="st1" d="M4.52,438.09c0.85-0.58,1.88-0.91,2.98-0.91v5.32L4.52,438.09z"/>
		<path class="st1" d="M5.49,452.57c0.63-0.25,1.3-0.39,2.01-0.39v5.32L5.49,452.57z"/>
		<path class="st1" d="M6.42,467.29c0.34-0.07,0.71-0.11,1.08-0.11v5.32L6.42,467.29z"/>
	</svg>



	<svg id="icon-shape_square" viewBox="0 0 21 13">
		<style type="text/css">
			.st0{fill:none;stroke:#b92;stroke-width:1.5;}
		</style>
		<polyline class="st0" points="1.3,10.1 1.3,2.9 11,2.9 11,10.1 19.7,10.1 19.7,2.9 "/>
	</svg>

	<svg id="icon-shape_triangle" viewBox="0 0 21 13">
		<style type="text/css">
			.st0{fill:none;stroke:#b92;stroke-width:1.5;}
		</style>
		<polyline class="st0" points="1,6.5 6,1.8 15,11.2 20,6.6 "/>
	</svg>

	<svg id="icon-shape_sawtooth" viewBox="0 0 21 13">
		<style type="text/css">
			.st0{fill:none;stroke:#b92;stroke-width:1.5;}
		</style>
		<polyline class="st0" points="1.8,10 1.8,3.1 10.5,10 10.5,3.1 19.6,10 "/>
	</svg>

	<svg id="icon-shape_sine" viewBox="0 0 21 13">
		<style type="text/css">
			.st0{fill:none;stroke:#b92;stroke-width:1.5;}
		</style>
		<path class="st0" d="M20.2,6.5c-1,1.4-2.2,4.4-5.3,4.4c-2,0-3.2-2.3-4.4-4.5S8,2.1,5.9,2.1c-3.1,0-4.3,3.1-5.2,4.4"/>
	</svg>

	<svg id="icon-shape_custom" viewBox="0 0 21 13">
		<style type="text/css">
			.st0{fill:none;stroke:#b92;stroke-width:1.5;}
		</style>
		<path class="st0" d="M20.2,6.5c-0.5,1.4-1.1,4.4-2.6,4.4c-1,0-1.6-2.3-2.2-4.5c-0.6-2.2-1.2-4.3-2.3-4.3c-1.5,0-2.1,3.1-2.6,4.4v3.6
	H6.1V2.9H1.3v7.2"/>
	</svg>



	<svg id="icon-curve_exponential" viewBox="0 0 13 13">
		<style type="text/css">
			.st0{fill:none;stroke:#b92;stroke-width:1.5;}
		</style>
		<path class="st0" d="M11.2,1c0,7-3.3,10.2-10.2,10.2"/>
	</svg>

	<svg id="icon-curve_linear" viewBox="0 0 13 13">
		<style type="text/css">
			.st0{fill:none;stroke:#b92;stroke-width:1.5;}
		</style>
		<line class="st0" x1="1.4" y1="11.6" x2="11.5" y2="1.5"/>
	</svg>

	<svg id="icon-curve_sine" viewBox="0 0 13 13">
		<style type="text/css">
			.st0{fill:none;stroke:#b92;stroke-width:1.5;}
		</style>
		<path class="st0" d="M1.1,10.7c9.1,0,1.9-8.4,10.9-8.4"/>
	</svg>

	<svg id="icon-curve_cosine" viewBox="0 0 13 13">
		<style type="text/css">
			.st0{fill:none;stroke:#b92;stroke-width:1.5;}
		</style>
		<path class="st0" d="M1.7,12c0-2.9,2.9-8.8,10-10"/>
	</svg>

	<svg id="icon-curve_step" viewBox="0 0 13 13">
		<style type="text/css">
			.st0{fill:none;stroke:#b92;stroke-width:1.5;}
		</style>
		<polyline class="st0" points="1.7,11.9 1.7,6.3 6.6,6.3 6.6,1.6 12,1.6 "/>
	</svg>

	<svg id="icon-curve_bounce" viewBox="0 0 13 13">
		<style type="text/css">
			.st0{fill:none;stroke:#b92;stroke-width:1.5;}
		</style>
		<path class="st0" d="M1.1,11.5c2.4,0,4.6-5.9,4.6-9.6c0,3.6,0.9,4.7,2.3,4.7S9.6,4,9.6,1.9c0,2.1,2,2.2,2,0"/>
	</svg>

	<svg id="icon-curve_ripple" viewBox="0 0 13 13">
		<style type="text/css">
			.st0{fill:none;stroke:#b92;stroke-width:1.5;}
		</style>
		<path class="st0" d="M1,11.1c2.2,0,2.9-0.9,2.9-2.5c0-1,0.6-2.1,2.2-2.1s2.3-1.3,2.3-2.7S9.5,1.8,12,1.8"/>
	</svg>

	<svg id="icon-folder-open" viewBox="0 0 17 17">
		<path fill="#333" d="M16,9.5c0,0.2-0.1,0.4-0.2,0.5L13.1,13c-0.5,0.5-1.4,1-2.1,1H2.3c-0.3,0-0.7-0.1-0.7-0.4c0-0.2,0.1-0.4,0.2-0.5L4.5,10
			C5,9.4,5.9,9,6.6,9h8.7C15.6,9,16,9.1,16,9.5z M13.2,6.4V8H6.6c-1,0-2.2,0.6-2.9,1.3L1,12.4c0-0.1,0-0.1,0-0.2l0-7.7
			C1,3.5,1.3,3,2.3,3h3.5c1,0,1.4,0.3,1.4,1.3V5h4.7C12.8,5,13.2,5.4,13.2,6.4z"/>
	</svg>

	<svg id="icon-clipboard" viewBox="0 0 17 17">
		<path fill="#333" d="M14.6,2.9h-4.2c0-1-0.8-1.9-1.9-1.9S6.6,1.8,6.6,2.9H2.4c-0.3,0-0.5,0.2-0.5,0.5v12.2c0,0.3,0.2,0.5,0.5,0.5h12.2
			c0.3,0,0.5-0.2,0.5-0.5V3.3C15.1,3.1,14.9,2.9,14.6,2.9z M8.5,1.9c0.5,0,0.9,0.4,0.9,0.9S9,3.8,8.5,3.8S7.6,3.4,7.6,2.9
			S8,1.9,8.5,1.9z M14,15H3V4h1.7v1.5C4.7,5.8,5,6,5.2,6h6.6c0.3,0,0.5-0.2,0.5-0.5V4H14V15z"/>
		<path fill="#333" d="M7.6,13.6l-3-3.5l0.9-0.9l2.2,1.7l4-3.6l0.9,0.9L7.6,13.6z"/>
	</svg>


	<svg id="pan2" viewBox="0 0 25 1275">
		<style type="text/css">
			.st0{fill:none;stroke:#8ad;stroke-width:2.25;stroke-linecap:round;}
			.st1{fill:none;stroke:#254565;stroke-width:2.25;stroke-linecap:round;}
		</style>
		<path class="st0" d="M23.4,1263.7c0.3-3.1-0.7-6.5-3.2-8.9c-4.3-4.3-11.3-4.3-15.5,0"/>
		<path class="st0" d="M4.7,204.7c-4.3,4.3-4.3,11.3,0,15.5c0.3,0.3,0.6,0.6,0.8,0.7"/>
		<path class="st0" d="M4.7,229.7c-4.3,4.3-4.3,11.3,0,15.5"/>
		<path class="st0" d="M4.7,254.7c-4,4-4.3,10.4-0.7,14.7"/>
		<path class="st0" d="M4.7,279.8c-3.8,3.8-4.2,9.7-1.3,13.9"/>
		<path class="st0" d="M4.7,304.8c-3.5,3.5-4.2,8.8-1.9,13"/>
		<path class="st0" d="M4.7,329.8c-3.2,3.2-4,8-2.3,12"/>
		<path class="st0" d="M4.7,354.8c-2.9,2.9-3.9,7.2-2.8,11"/>
		<path class="st0" d="M4.7,379.8c-2.7,2.7-3.7,6.4-2.9,9.9"/>
		<path class="st0" d="M4.7,4.7C0.5,9,0.5,16,4.7,20.3c2.4,2.4,5.8,3.5,8.9,3.2"/>
		<path class="st0" d="M4.7,29.7C0.5,34,0.5,41,4.7,45.3c2.1,2.1,5,3.2,7.8,3.2"/>
		<path class="st0" d="M4.7,54.7C0.5,59,0.5,66,4.7,70.3c1.9,1.9,4.3,2.9,6.7,3.2"/>
		<path class="st0" d="M4.7,79.7C0.5,84,0.5,91,4.7,95.3c1.6,1.6,3.6,2.6,5.7,3"/>
		<path class="st0" d="M4.7,104.7c-4.3,4.3-4.3,11.3,0,15.5c1.3,1.3,2.9,2.3,4.7,2.8"/>
		<path class="st0" d="M4.7,129.7c-4.3,4.3-4.3,11.3,0,15.5c1.1,1.1,2.3,1.9,3.6,2.4"/>
		<path class="st0" d="M4.7,154.7c-4.3,4.3-4.3,11.3,0,15.5c0.8,0.8,1.7,1.4,2.6,1.9"/>
		<path class="st0" d="M4.7,179.7c-4.3,4.3-4.3,11.3,0,15.5c0.6,0.6,1.1,1,1.7,1.4"/>
		<path class="st0" d="M4.7,404.8c-2.4,2.4-3.5,5.7-3.1,8.9"/>
		<path class="st0" d="M4.7,429.8c-2.1,2.1-3.2,4.9-3.2,7.8"/>
		<path class="st0" d="M4.7,454.8c-1.9,1.9-2.9,4.3-3.2,6.7"/>
		<path class="st0" d="M4.7,479.8c-1.6,1.6-2.6,3.6-3,5.7"/>
		<path class="st0" d="M4.7,504.8c-1.3,1.3-2.2,2.9-2.7,4.6"/>
		<path class="st0" d="M4.7,529.8c-1.1,1.1-1.8,2.3-2.4,3.6"/>
		<path class="st0" d="M4.7,554.8c-0.8,0.8-1.4,1.7-1.9,2.6"/>
		<path class="st0" d="M4.7,579.8c-0.5,0.5-1,1.1-1.3,1.7"/>
		<path class="st0" d="M5.6,604.4"/>
		<path class="st0" d="M4.7,654.8"/>
		<path class="st0" d="M4.7,679.8"/>
		<path class="st0" d="M4.7,704.8"/>
		<path class="st0" d="M4.7,729.8"/>
		<path class="st0" d="M4.7,754.8"/>
		<path class="st0" d="M4.7,779.8"/>
		<path class="st0" d="M11.4,801.6c-2.4,0.2-4.8,1.3-6.7,3.2"/>
		<path class="st0" d="M12.5,826.5c-2.8,0-5.6,1.1-7.8,3.2"/>
		<path class="st0" d="M13.6,851.7c-3.2-0.3-6.5,0.7-8.9,3.1"/>
		<path class="st0" d="M14.7,876.8c-3.5-0.7-7.3,0.3-9.9,2.9"/>
		<path class="st0" d="M15.7,902c-3.8-1.1-8-0.2-11,2.8"/>
		<path class="st0" d="M16.7,927.4c-4-1.7-8.8-0.9-12,2.3"/>
		<path class="st0" d="M17.7,952.8c-4.2-2.3-9.5-1.6-13,1.9"/>
		<path class="st0" d="M18.6,978.4c-4.3-2.8-10.2-2.4-13.9,1.3"/>
		<path class="st0" d="M5.6,604.4c-0.3,0.3-0.5,0.5-0.7,0.8"/>
		<path class="st0" d="M5.6,654c-0.3,0.3-0.6,0.4-0.8,0.7"/>
		<path class="st0" d="M6.4,678.4c-0.6,0.4-1.2,0.8-1.7,1.3"/>
		<path class="st0" d="M7.3,702.8c-0.9,0.5-1.8,1.2-2.6,1.9"/>
		<path class="st0" d="M8.3,727.4c-1.3,0.6-2.6,1.3-3.6,2.4"/>
		<path class="st0" d="M9.3,752c-1.7,0.5-3.3,1.4-4.6,2.7"/>
		<path class="st0" d="M10.4,776.8c-2.1,0.4-4,1.4-5.7,3"/>
		<path class="st0" d="M19.5,1004.1c-4.3-3.6-10.8-3.3-14.8,0.7"/>
		<path class="st0" d="M20.3,1029.8c-4.3-4.3-11.3-4.3-15.5,0"/>
		<path class="st0" d="M21,1055.6c-0.3-0.3-0.5-0.6-0.7-0.8c-4.3-4.3-11.3-4.3-15.5,0"/>
		<path class="st0" d="M21.6,1081.5c-0.4-0.6-0.8-1.2-1.4-1.7c-4.3-4.3-11.3-4.3-15.5,0"/>
		<path class="st0" d="M22.2,1107.4c-0.5-0.9-1.2-1.8-1.9-2.6c-4.3-4.3-11.3-4.3-15.5,0"/>
		<path class="st0" d="M22.7,1133.4c-0.6-1.3-1.3-2.6-2.4-3.6c-4.3-4.3-11.3-4.3-15.5,0"/>
		<path class="st0" d="M23,1159.4c-0.5-1.7-1.4-3.3-2.8-4.7c-4.3-4.3-11.3-4.3-15.5,0"/>
		<path class="st0" d="M23.3,1185.5c-0.4-2.1-1.4-4.1-3-5.7c-4.3-4.3-11.3-4.3-15.5,0"/>
		<path class="st0" d="M23.5,1211.5c-0.2-2.4-1.3-4.9-3.2-6.7c-4.3-4.3-11.3-4.3-15.5,0"/>
		<path class="st0" d="M23.5,1237.6c0-2.8-1.1-5.7-3.2-7.9c-4.3-4.3-11.3-4.3-15.5,0"/>
		<path class="st1" d="M4.7,1254.8c-4.3,4.3-4.3,11.3,0,15.5c2.4,2.4,5.8,3.5,8.9,3.2"/>
		<path class="st1" d="M23.4,13.7c0.3-3.1-0.7-6.5-3.2-8.9C16,0.5,9,0.5,4.7,4.7"/>
		<path class="st1" d="M5.6,46.1"/>
		<path class="st1" d="M23.4,38.7c0.3-3.1-0.7-6.5-3.2-8.9C16,25.5,9,25.5,4.7,29.7"/>
		<path class="st1" d="M23.4,63.7c0.3-3.1-0.7-6.5-3.2-8.9C16,50.5,9,50.5,4.7,54.7"/>
		<path class="st1" d="M23.4,88.7c0.3-3.1-0.7-6.5-3.2-8.9C16,75.5,9,75.5,4.7,79.7"/>
		<path class="st1" d="M23.4,113.7c0.3-3.1-0.7-6.5-3.2-8.9c-4.3-4.3-11.3-4.3-15.5,0"/>
		<path class="st1" d="M23.4,138.7c0.3-3.1-0.7-6.5-3.2-8.9c-4.3-4.3-11.3-4.3-15.5,0"/>
		<path class="st1" d="M23.4,163.7c0.3-3.1-0.7-6.5-3.2-8.9c-4.3-4.3-11.3-4.3-15.5,0"/>
		<path class="st1" d="M23.4,188.7c0.3-3.1-0.7-6.5-3.2-8.9c-4.3-4.3-11.3-4.3-15.5,0"/>
		<path class="st1" d="M23.4,213.7c0.3-3.1-0.7-6.5-3.2-8.9c-4.3-4.3-11.3-4.3-15.5,0"/>
		<path class="st1" d="M23.4,238.7c0.3-3.1-0.7-6.5-3.2-8.9c-4.3-4.3-11.3-4.3-15.5,0"/>
		<path class="st1" d="M23.4,263.7c0.3-3.1-0.7-6.5-3.2-8.9c-4.3-4.3-11.3-4.3-15.5,0"/>
		<path class="st1" d="M23.4,288.7c0.3-3.1-0.7-6.5-3.2-8.9c-4.3-4.3-11.3-4.3-15.5,0"/>
		<path class="st1" d="M23.4,313.7c0.3-3.1-0.7-6.5-3.2-8.9c-4.3-4.3-11.3-4.3-15.5,0"/>
		<path class="st1" d="M23.4,338.7c0.3-3.1-0.7-6.5-3.2-8.9c-4.3-4.3-11.3-4.3-15.5,0"/>
		<path class="st1" d="M23.4,363.7c0.3-3.1-0.7-6.5-3.2-8.9c-4.3-4.3-11.3-4.3-15.5,0"/>
		<path class="st1" d="M23.4,388.7c0.3-3.1-0.7-6.5-3.2-8.9c-4.3-4.3-11.3-4.3-15.5,0"/>
		<path class="st1" d="M23.4,413.7c0.3-3.1-0.7-6.5-3.2-8.9c-4.3-4.3-11.3-4.3-15.5,0"/>
		<path class="st1" d="M23.4,438.7c0.3-3.1-0.7-6.5-3.2-8.9c-4.3-4.3-11.3-4.3-15.5,0"/>
		<path class="st1" d="M23.4,463.7c0.3-3.1-0.7-6.5-3.2-8.9c-4.3-4.3-11.3-4.3-15.5,0"/>
		<path class="st1" d="M23.4,488.7c0.3-3.1-0.7-6.5-3.2-8.9c-4.3-4.3-11.3-4.3-15.5,0"/>
		<path class="st1" d="M23.4,513.7c0.3-3.1-0.7-6.5-3.2-8.9c-4.3-4.3-11.3-4.3-15.5,0"/>
		<path class="st1" d="M23.4,538.7c0.3-3.1-0.7-6.5-3.2-8.9c-4.3-4.3-11.3-4.3-15.5,0"/>
		<path class="st1" d="M23.4,563.7c0.3-3.1-0.7-6.5-3.2-8.9c-4.3-4.3-11.3-4.3-15.5,0"/>
		<path class="st1" d="M23.4,588.7c0.3-3.1-0.7-6.5-3.2-8.9c-4.3-4.3-11.3-4.3-15.5,0"/>
		<path class="st1" d="M23.4,613.7c0.3-3.1-0.7-6.5-3.2-8.9c-4.3-4.3-11.3-4.3-15.5,0"/>
		<path class="st1" d="M23.4,638.7c0.3-3.1-0.7-6.5-3.2-8.9c-4.3-4.3-11.3-4.3-15.5,0c-4.3,4.3-4.3,11.3,0,15.5 c2.4,2.4,5.8,3.5,8.9,3.2"/>
		<path class="st1" d="M4.7,654.8c-4.3,4.3-4.3,11.3,0,15.5c2.4,2.4,5.8,3.5,8.9,3.2"/>
		<path class="st1" d="M4.7,679.8c-4.3,4.3-4.3,11.3,0,15.5c2.4,2.4,5.8,3.5,8.9,3.2"/>
		<path class="st1" d="M4.7,704.8c-4.3,4.3-4.3,11.3,0,15.5c2.4,2.4,5.8,3.5,8.9,3.2"/>
		<path class="st1" d="M4.7,729.8c-4.3,4.3-4.3,11.3,0,15.5c2.4,2.4,5.8,3.5,8.9,3.2"/>
		<path class="st1" d="M4.7,754.8c-4.3,4.3-4.3,11.3,0,15.5c2.4,2.4,5.8,3.5,8.9,3.2"/>
		<path class="st1" d="M4.7,779.8c-4.3,4.3-4.3,11.3,0,15.5c2.4,2.4,5.8,3.5,8.9,3.2"/>
		<path class="st1" d="M4.7,804.8c-4.3,4.3-4.3,11.3,0,15.5c2.4,2.4,5.8,3.5,8.9,3.2"/>
		<path class="st1" d="M4.7,829.8c-4.3,4.3-4.3,11.3,0,15.5c2.4,2.4,5.8,3.5,8.9,3.2"/>
		<path class="st1" d="M4.7,854.8c-4.3,4.3-4.3,11.3,0,15.5c2.4,2.4,5.8,3.5,8.9,3.2"/>
		<path class="st1" d="M4.7,879.8c-4.3,4.3-4.3,11.2,0,15.5c2.4,2.4,5.8,3.5,8.9,3.2"/>
		<path class="st1" d="M4.7,904.8c-4.3,4.3-4.3,11.3,0,15.5c2.4,2.4,5.8,3.5,8.9,3.2"/>
		<path class="st1" d="M4.7,929.8c-4.3,4.3-4.3,11.3,0,15.5c2.4,2.4,5.8,3.5,8.9,3.2"/>
		<path class="st1" d="M4.7,954.7c-4.3,4.3-4.3,11.3,0,15.6c2.4,2.4,5.8,3.5,9,3.2"/>
		<path class="st1" d="M4.7,979.7c-4.3,4.3-4.3,11.3,0,15.6c2.4,2.4,5.8,3.5,9,3.2"/>
		<path class="st1" d="M4.7,1004.8c-4.3,4.3-4.3,11.3,0,15.5c2.4,2.4,5.8,3.5,8.9,3.2"/>
		<path class="st1" d="M4.7,1029.8c-4.3,4.3-4.3,11.3,0,15.5c2.4,2.4,5.8,3.5,8.9,3.2"/>
		<path class="st1" d="M4.7,1054.8c-4.3,4.3-4.3,11.3,0,15.5c2.4,2.4,5.8,3.5,8.9,3.2"/>
		<path class="st1" d="M4.7,1079.8c-4.3,4.3-4.3,11.3,0,15.5c2.4,2.4,5.8,3.5,8.9,3.2"/>
		<path class="st1" d="M4.7,1104.8c-4.3,4.3-4.3,11.3,0,15.5c2.4,2.4,5.8,3.5,8.9,3.2"/>
		<path class="st1" d="M4.7,1129.8c-4.3,4.3-4.3,11.3,0,15.5c2.4,2.4,5.8,3.5,8.9,3.2"/>
		<path class="st1" d="M4.7,1154.8c-4.3,4.3-4.3,11.3,0,15.5c2.4,2.4,5.8,3.5,8.9,3.2"/>
		<path class="st1" d="M4.7,1179.8c-4.3,4.3-4.3,11.3,0,15.5c2.4,2.4,5.8,3.5,8.9,3.2"/>
		<path class="st1" d="M4.7,1204.8c-4.3,4.3-4.3,11.3,0,15.5c2.4,2.4,5.8,3.5,8.9,3.2"/>
		<path class="st1" d="M4.7,1229.8c-4.3,4.3-4.3,11.3,0,15.5c2.4,2.4,5.8,3.5,8.9,3.2"/>
		<line class="st1" x1="12.5" y1="1262.5" x2="23.4" y2="1263.7"/>
		<line class="st1" x1="12.5" y1="12.5" x2="13.7" y2="23.4"/>
		<path class="st1" d="M12.5,37.5l0,11c0.4,0,0.8,0,1.2-0.1"/>
		<path class="st1" d="M12.5,62.5l-1.1,10.9c0.7,0.1,1.5,0.1,2.2,0"/>
		<path class="st1" d="M12.5,87.5l-2.1,10.8c1.1,0.2,2.2,0.3,3.3,0.2"/>
		<path class="st1" d="M12.5,112.5l-3.1,10.5c1.4,0.4,2.9,0.6,4.3,0.4"/>
		<path class="st1" d="M12.5,137.5l-4.2,10.2c1.7,0.7,3.6,1,5.3,0.8"/>
		<path class="st1" d="M12.5,162.5l-5.2,9.7c1.9,1.1,4.2,1.4,6.3,1.2"/>
		<path class="st1" d="M12.5,187.5l-6,9.2c2.2,1.4,4.8,2,7.2,1.8"/>
		<path class="st1" d="M12.5,212.5L5.6,221c2.3,1.9,5.3,2.7,8.1,2.4"/>
		<path class="st1" d="M12.5,237.5l-7.8,7.8c2.4,2.4,5.8,3.5,8.9,3.2"/>
		<path class="st1" d="M12.5,262.5L4,269.5c0.2,0.3,0.4,0.6,0.7,0.8c2.4,2.4,5.8,3.5,8.9,3.2"/>
		<path class="st1" d="M12.5,287.5l-9.2,6c0.4,0.6,0.9,1.2,1.4,1.7c2.4,2.4,5.8,3.5,8.9,3.2"/>
		<path class="st1" d="M12.5,312.5l-9.7,5.2c0.5,0.9,1.1,1.8,1.9,2.6c2.4,2.4,5.8,3.5,8.9,3.2"/>
		<path class="st1" d="M12.5,337.5l-10.1,4.2c0.6,1.3,1.3,2.6,2.3,3.6c2.4,2.4,5.8,3.5,8.9,3.2"/>
		<path class="st1" d="M12.5,362.5L2,365.7c0.6,1.7,1.4,3.2,2.8,4.5c2.4,2.4,5.8,3.5,8.9,3.2"/>
		<path class="st1" d="M12.5,387.5l-10.7,2.2c0.4,2.1,1.4,4,2.9,5.6c2.4,2.4,5.8,3.5,8.9,3.2"/>
		<path class="st1" d="M12.5,412.5l-10.9,1.1c0.2,2.4,1.3,4.8,3.1,6.7c2.4,2.4,5.8,3.5,8.9,3.2"/>
		<path class="st1" d="M12.5,437.5h-11c0,2.8,1.1,5.6,3.2,7.8c2.4,2.4,5.8,3.5,8.9,3.2"/>
		<path class="st1" d="M12.5,462.5l-10.9-1.1c-0.3,3.2,0.8,6.4,3.2,8.8c2.4,2.4,5.8,3.5,8.9,3.2"/>
		<path class="st1" d="M12.5,487.5l-10.8-2.1c-0.7,3.4,0.3,7.2,3,9.9c2.4,2.4,5.8,3.5,8.9,3.2"/>
		<path class="st1" d="M12.5,512.5L2,509.4c-1.2,3.7-0.2,8,2.7,10.9c2.4,2.4,5.8,3.5,8.9,3.2"/>
		<path class="st1" d="M12.5,537.5l-10.2-4.2c-1.6,3.9-0.8,8.7,2.4,11.9c2.4,2.4,5.8,3.5,8.9,3.2"/>
		<path class="st1" d="M12.5,562.5l-9.7-5.2c-2.2,4.2-1.6,9.4,1.9,12.9c2.4,2.4,5.8,3.5,8.9,3.2"/>
		<path class="st1" d="M12.5,587.5l-9.1-6.1c-2.8,4.3-2.4,10.2,1.3,13.9c2.4,2.4,5.8,3.5,8.9,3.2"/>
		<path class="st1" d="M12.5,612.5L4,605.6c-3.5,4.3-3.3,10.7,0.7,14.7c2.4,2.4,5.8,3.5,8.9,3.2"/>
		<line class="st1" x1="12.5" y1="637.5" x2="4.7" y2="629.8"/>
		<path class="st1" d="M12.5,662.5L5.6,654c4.3-3.6,10.7-3.3,14.7,0.7c2.4,2.4,3.5,5.8,3.2,8.9"/>
		<path class="st1" d="M12.5,687.5l-6.1-9.1c4.3-2.8,10.2-2.4,13.9,1.3c2.4,2.4,3.5,5.8,3.2,8.9"/>
		<path class="st1" d="M12.5,712.5l-5.2-9.7c4.2-2.2,9.4-1.6,12.9,1.9c2.4,2.4,3.5,5.8,3.2,8.9"/>
		<path class="st1" d="M12.5,737.5l-4.2-10.2c4-1.7,8.7-0.8,11.9,2.4c2.4,2.4,3.5,5.8,3.2,8.9"/>
		<path class="st1" d="M12.5,762.5L9.3,752c3.8-1.1,8-0.2,10.9,2.7c2.4,2.4,3.5,5.8,3.2,8.9"/>
		<path class="st1" d="M12.5,787.5l-2.1-10.8c3.4-0.7,7.2,0.3,9.9,3c2.4,2.4,3.5,5.8,3.2,8.9"/>
		<path class="st1" d="M12.5,812.5l-1.1-10.9c3.2-0.3,6.4,0.8,8.8,3.2c2.4,2.4,3.5,5.8,3.2,8.9"/>
		<path class="st1" d="M12.5,837.5l0-11c2.8,0,5.6,1.1,7.8,3.2c2.4,2.4,3.5,5.8,3.2,8.9"/>
		<path class="st1" d="M12.5,862.5l1.1-10.9c2.4,0.2,4.8,1.3,6.7,3.1c2.4,2.4,3.5,5.8,3.2,8.9"/>
		<path class="st1" d="M12.5,887.5l2.2-10.7c2,0.4,4,1.4,5.6,2.9c2.4,2.4,3.5,5.8,3.2,8.9"/>
		<path class="st1" d="M12.5,912.5l3.2-10.5c1.7,0.6,3.2,1.4,4.5,2.8c2.4,2.4,3.5,5.8,3.2,8.9"/>
		<path class="st1" d="M12.5,937.5l4.2-10.1c1.3,0.5,2.5,1.3,3.6,2.3c2.4,2.4,3.5,5.8,3.2,8.9"/>
		<path class="st1" d="M12.5,962.5l5.2-9.7c0.9,0.5,1.8,1.1,2.6,1.9c2.4,2.4,3.5,5.8,3.2,9"/>
		<path class="st1" d="M12.5,987.5l6.1-9.1l0,0c0.6,0.4,1.2,0.8,1.7,1.3c2.4,2.4,3.5,5.8,3.2,9"/>
		<path class="st1" d="M12.5,1012.5l7-8.4l0,0c0.2,0.2,0.6,0.4,0.8,0.7c2.4,2.4,3.5,5.8,3.2,8.9"/>
		<path class="st1" d="M12.5,1037.5l7.8-7.8c2.4,2.4,3.5,5.8,3.2,8.9"/>
		<path class="st1" d="M12.5,1062.5l8.5-6.9c1.9,2.3,2.7,5.3,2.4,8.1"/>
		<path class="st1" d="M12.5,1087.5l9.2-6c1.4,2.2,2,4.8,1.8,7.2"/>
		<path class="st1" d="M12.5,1112.5l9.7-5.2c1.1,1.9,1.4,4.2,1.2,6.3"/>
		<path class="st1" d="M12.5,1137.5l10.2-4.2c0.7,1.7,1,3.6,0.8,5.3"/>
		<path class="st1" d="M12.5,1162.5l10.5-3.1c0.4,1.4,0.6,2.9,0.4,4.3"/>
		<path class="st1" d="M12.5,1187.5l10.8-2.1c0.2,1.1,0.3,2.2,0.2,3.3"/>
		<path class="st1" d="M12.5,1212.5l10.9-1.1l0,0c0.1,0.7,0.1,1.5,0,2.2"/>
		<path class="st1" d="M12.5,1237.5l11,0.1l0,0c0,0.3-0.1,0.7-0.1,1.1"/>
	</svg>

	<svg id="knob2" viewBox="0 0 25 1275">
		<style type="text/css">
			.st0{fill:none;stroke:#254565;stroke-width:2.25;stroke-linecap:round;}
			.st1{fill:none;stroke:#8ad;stroke-width:2.25;stroke-linecap:round;}
		</style>
		<path class="st0" d="M23.7,12.5c0-6.2-5-11.2-11.2-11.2S1.3,6.3,1.3,12.5s5,11.2,11.2,11.2V12.5"/>
		<path class="st1" d="M23.7,1262.5c0-6.2-5-11.2-11.2-11.2s-11.2,5-11.2,11.2c0,6.2,5,11.2,11.2,11.2"/>
		<path class="st1" d="M23.7,1237.5c0-6.2-5-11.2-11.2-11.2s-11.2,5-11.2,11.2c0,6.2,5,11.2,11.2,11.2"/>
		<path class="st1" d="M23.7,1211.4c-0.5-5.7-5.3-10.2-11.2-10.2c-6.2,0-11.2,5-11.2,11.2c0,6.2,5,11.2,11.2,11.2"/>
		<path class="st1" d="M23.5,1185.4c-1-5.2-5.5-9.1-11-9.1c-6.2,0-11.2,5-11.2,11.2c0,6.2,5,11.2,11.2,11.2"/>
		<path class="st1" d="M23.3,1159.4c-1.3-4.7-5.6-8.1-10.8-8.1c-6.2,0-11.2,5-11.2,11.2c0,6.2,5,11.2,11.2,11.2"/>
		<path class="st1" d="M22.9,1133.4c-1.6-4.2-5.7-7.1-10.4-7.1c-6.2,0-11.2,5-11.2,11.2c0,6.2,5,11.2,11.2,11.2"/>
		<path class="st1" d="M22.5,1107.4c-1.8-3.6-5.6-6.1-10-6.1c-6.2,0-11.2,5-11.2,11.2c0,6.2,5,11.2,11.2,11.2"/>
		<path class="st1" d="M22,1081.5c-2-3.1-5.5-5.2-9.5-5.2c-6.2,0-11.2,5-11.2,11.2c0,6.2,5,11.2,11.2,11.2"/>
		<path class="st1" d="M20.7,1054.8c-2-2.2-4.9-3.5-8.2-3.5c-6.2,0-11.2,5-11.2,11.2c0,6.2,5,11.2,11.2,11.2"/>
		<path class="st1" d="M19.9,1029c-2-1.7-4.6-2.8-7.4-2.8c-6.2,0-11.2,5-11.2,11.2c0,6.2,5,11.2,11.2,11.2"/>
		<path class="st1" d="M19.1,1003.4c-1.8-1.3-4.1-2.1-6.6-2.1c-6.2,0-11.2,5-11.2,11.2c0,6.2,5,11.2,11.2,11.2"/>
		<path class="st1" d="M18.2,977.8c-1.7-1-3.6-1.6-5.7-1.6c-6.2,0-11.2,5-11.2,11.2c0,6.2,5,11.2,11.2,11.2"/>
		<path class="st1" d="M17.3,952.3c-1.4-0.7-3.1-1.1-4.8-1.1c-6.2,0-11.2,5-11.2,11.2c0,6.2,5,11.2,11.2,11.2"/>
		<path class="st1" d="M16.3,926.9c-1.2-0.4-2.5-0.7-3.8-0.7c-6.2,0-11.2,5-11.2,11.2c0,6.2,5,11.2,11.2,11.2"/>
		<path class="st1" d="M15.3,901.6c-0.9-0.2-1.8-0.4-2.8-0.4c-6.2,0-11.2,5-11.2,11.2c0,6.2,5,11.2,11.2,11.2"/>
		<path class="st1" d="M14.3,876.4c-0.6-0.1-1.2-0.1-1.8-0.1c-6.2,0-11.2,5-11.2,11.2c0,6.2,5,11.2,11.2,11.2"/>
		<path class="st1" d="M13.2,851.3c-0.2,0-0.5,0-0.7,0c-6.2,0-11.2,5-11.2,11.2c0,6.2,5,11.2,11.2,11.2"/>
		<path class="st1" d="M12.1,826.4c-6,0.2-10.8,5.1-10.8,11.2c0,6.2,5,11.2,11.2,11.2"/>
		<path class="st1" d="M11.1,801.5c-5.5,0.7-9.8,5.4-9.8,11.1c0,6.2,5,11.2,11.2,11.2"/>
		<path class="st1" d="M10.1,776.6c-5,1.1-8.8,5.6-8.8,10.9c0,6.2,5,11.2,11.2,11.2"/>
		<path class="st1" d="M9,751.9c-4.5,1.5-7.7,5.7-7.7,10.7c0,6.2,5,11.2,11.2,11.2"/>
		<path class="st1" d="M8.1,727.3c-4,1.7-6.8,5.7-6.8,10.3c0,6.2,5,11.2,11.2,11.2"/>
		<path class="st1" d="M7.1,702.7c-3.5,1.9-5.8,5.6-5.8,9.8c0,6.2,5,11.2,11.2,11.2"/>
		<path class="st1" d="M6.2,678.3c-2.9,2-4.9,5.4-4.9,9.3c0,6.2,5,11.2,11.2,11.2"/>
		<path class="st1" d="M5.3,653.9c-2.5,2.1-4,5.1-4,8.6c0,6.2,5,11.2,11.2,11.2"/>
		<path class="st1" d="M4.6,629.6c-2,2-3.3,4.8-3.3,7.9c0,6.2,5,11.2,11.2,11.2"/>
		<path class="st1" d="M3.9,605.4c-1.6,1.9-2.6,4.4-2.6,7.2c0,6.2,5,11.2,11.2,11.2"/>
		<path class="st1" d="M3.2,581.3c-1.2,1.8-1.9,3.9-1.9,6.3c0,6.2,5,11.2,11.2,11.2"/>
		<path class="st1" d="M2.7,557.2c-0.9,1.6-1.4,3.4-1.4,5.4c0,6.2,5,11.2,11.2,11.2"/>
		<path class="st1" d="M2.2,533.1c-0.6,1.4-0.9,2.9-0.9,4.4c0,6.2,5,11.2,11.2,11.2"/>
		<path class="st1" d="M1.8,509.1c-0.3,1.1-0.5,2.2-0.5,3.5c0,6.2,5,11.2,11.2,11.2"/>
		<path class="st1" d="M1.6,485.1c-0.2,0.8-0.3,1.6-0.3,2.4c0,6.2,5,11.2,11.2,11.2"/>
		<path class="st1" d="M1.4,461.2c-0.1,0.5-0.1,0.9-0.1,1.4c0,6.2,5,11.2,11.2,11.2"/>
		<path class="st1" d="M1.3,437.2c0,0.1,0,0.2,0,0.4c0,6.2,5,11.2,11.2,11.2"/>
		<path class="st1" d="M1.3,412.5c0,0.2,0,0.5,0,0.7c0.4,5.9,5.2,10.5,11.2,10.5"/>
		<path class="st1" d="M1.4,389.3c0.9,5.3,5.5,9.4,11.1,9.4"/>
		<path class="st1" d="M1.6,365.3c1.2,4.8,5.6,8.4,10.9,8.4"/>
		<path class="st1" d="M2,341.3c1.5,4.3,5.7,7.4,10.5,7.4"/>
		<path class="st1" d="M2.4,317.3c1.8,3.8,5.6,6.4,10.1,6.4"/>
		<path class="st1" d="M2.9,293.2c1.9,3.3,5.5,5.5,9.6,5.5"/>
		<path class="st1" d="M3.4,269.1c2,2.8,5.3,4.6,9.1,4.6"/>
		<path class="st1" d="M4.1,245c2.1,2.3,5.1,3.8,8.4,3.8"/>
		<path class="st1" d="M4.8,220.7c2,1.9,4.7,3,7.7,3"/>
		<path class="st1" d="M5.6,196.4c1.9,1.5,4.3,2.4,6.9,2.4"/>
		<path class="st1" d="M6.5,172c1.7,1.1,3.8,1.7,6,1.7"/>
		<path class="st1" d="M7.4,147.5c1.5,0.8,3.3,1.2,5.1,1.2"/>
		<path class="st1" d="M8.4,123c1.3,0.5,2.7,0.8,4.1,0.8"/>
		<path class="st1" d="M9.4,98.3c1,0.3,2.1,0.4,3.1,0.4"/>
		<path class="st1" d="M10.4,73.5c0.7,0.1,1.4,0.2,2.1,0.2"/>
		<path class="st1" d="M11.5,48.7c0.3,0,0.7,0,1,0"/>
		<path class="st0" d="M23.7,1262.5H12.5"/>
		<path class="st0" d="M23.7,1237.5H12.5"/>
		<path class="st0" d="M23.7,1212.5c0-0.4,0-0.7-0.1-1.1l-11.2,1.1"/>
		<path class="st0" d="M23.7,1187.5c0-0.7-0.1-1.4-0.2-2.1l-11,2.1"/>
		<path class="st0" d="M23.7,1162.5c0-1-0.1-2.1-0.5-3.1l-10.8,3.1"/>
		<path class="st0" d="M23.7,1137.5c0-1.4-0.3-2.8-0.8-4.1l-10.4,4.1"/>
		<path class="st0" d="M23.7,1112.5c0-1.7-0.4-3.5-1.2-5.1l-10,5.1"/>
		<path class="st0" d="M23.7,1087.5c0-2.1-0.6-4.1-1.8-6l-9.5,6"/>
		<path class="st0" d="M23.7,1062.5c0-2.7-1-5.5-3-7.7l-8.2,7.7"/>
		<path class="st0" d="M23.7,1037.5c0-3.1-1.3-6.2-3.8-8.4l-7.4,8.4"/>
		<path class="st0" d="M23.7,1012.5c0-3.5-1.6-6.9-4.6-9.1l-6.6,9.1"/>
		<path class="st0" d="M23.7,987.5c0-3.8-2-7.5-5.5-9.6l-5.7,9.6"/>
		<path class="st0" d="M23.7,962.5c0-4.2-2.4-8.2-6.4-10.1l-4.8,10.1"/>
		<path class="st0" d="M23.7,937.5c0-4.6-2.8-8.9-7.4-10.5l-3.8,10.5"/>
		<path class="st0" d="M23.7,912.5c0-5-3.3-9.5-8.4-10.8l-2.8,10.8"/>
		<path class="st0" d="M23.7,887.5c0-5.4-3.9-10.2-9.5-11.1l-1.8,11.1"/>
		<path class="st0" d="M23.7,863.2c0.4-6.2-4.3-11.5-10.5-11.9l-0.7,11.2"/>
		<path class="st0" d="M23.7,837.6c0-0.1,0-0.2,0-0.4c-0.2-6.2-5.3-11-11.5-10.8l0.4,11.2"/>
		<path class="st0" d="M23.7,812.6c0-0.5,0-0.9-0.1-1.4c-0.8-6.2-6.4-10.5-12.5-9.7l1.4,11.1"/>
		<path class="st0" d="M23.7,787.6c0-0.8-0.1-1.6-0.3-2.4c-1.4-6.1-7.3-9.8-13.4-8.5l2.4,10.9"/>
		<path class="st0" d="M23.7,762.6c0-1.1-0.2-2.3-0.6-3.5c-1.9-5.9-8.2-9.1-14.1-7.2l3.5,10.7"/>
		<path class="st0" d="M23.7,737.6c0-1.5-0.3-3-0.9-4.4c-2.5-5.7-9-8.3-14.7-5.8l4.4,10.3"/>
		<path class="st0" d="M23.7,712.6c0-1.8-0.4-3.7-1.4-5.4c-3-5.4-9.8-7.4-15.2-4.4l5.4,9.8"/>
		<path class="st0" d="M23.7,687.6c0-2.2-0.6-4.4-1.9-6.3c-3.5-5.1-10.4-6.5-15.6-3l6.3,9.3"/>
		<path class="st0" d="M23.7,662.6c0-2.5-0.8-5-2.6-7.1c-4-4.8-11-5.4-15.8-1.5l7.1,8.6"/>
		<path class="st0" d="M23.7,637.6c0-2.9-1.1-5.7-3.3-7.9c-4.4-4.4-11.5-4.4-15.8,0l7.9,7.9"/>
		<path class="st0" d="M23.7,612.6c0-3.2-1.4-6.4-4.1-8.6c-4.8-4-11.8-3.3-15.8,1.5l8.6,7.1"/>
		<path class="st0" d="M23.7,587.6c0-3.6-1.7-7.1-4.9-9.3c-5.1-3.5-12.1-2.2-15.6,3l9.3,6.3"/>
		<path class="st0" d="M23.7,562.6c0-4-2.1-7.8-5.8-9.8c-5.4-3-12.2-1-15.2,4.4l9.8,5.4"/>
		<path class="st0" d="M23.7,537.6c0-4.3-2.5-8.4-6.8-10.3c-5.7-2.5-12.3,0.1-14.7,5.8l10.3,4.4"/>
		<path class="st0" d="M23.7,512.6c0-4.7-3-9.1-7.7-10.7c-5.9-1.9-12.2,1.3-14.1,7.2l10.7,3.5"/>
		<path class="st0" d="M23.7,487.6c0-5.1-3.5-9.8-8.8-10.9c-6.1-1.4-12,2.4-13.4,8.5l10.9,2.4"/>
		<path class="st0" d="M23.7,462.6c0-5.6-4.1-10.4-9.8-11.1c-6.2-0.8-11.7,3.6-12.5,9.7l11.1,1.4"/>
		<path class="st0" d="M23.7,437.9c0.2-6.2-4.6-11.4-10.8-11.5c-6.2-0.2-11.4,4.6-11.5,10.8l11.2,0.4"/>
		<path class="st0" d="M23.7,412.5c0-0.2,0-0.5,0-0.7c-0.4-6.2-5.7-10.9-11.9-10.5s-10.9,5.7-10.5,11.9l11.2-0.7"/>
		<path class="st0" d="M23.7,387.5c0-0.6,0-1.2-0.1-1.8c-1-6.1-6.7-10.3-12.8-9.3c-6.1,1-10.3,6.7-9.3,12.8l11.1-1.8"/>
		<path class="st0" d="M23.7,362.5c0-0.9-0.1-1.9-0.4-2.8c-1.5-6-7.6-9.6-13.6-8.1s-9.6,7.6-8.1,13.6l10.8-2.8"/>
		<path class="st0" d="M23.7,337.5c0-1.3-0.2-2.5-0.7-3.8c-2.1-5.8-8.5-8.8-14.3-6.7c-5.8,2.1-8.8,8.5-6.7,14.3l10.5-3.8"/>
		<path class="st0" d="M23.7,312.5c0-1.6-0.3-3.2-1.1-4.8c-2.6-5.6-9.3-8-14.9-5.4s-8,9.3-5.4,14.9l10.1-4.8"/>
		<path class="st0" d="M23.7,287.5c0-1.9-0.5-3.9-1.6-5.7c-3.2-5.3-10-7.1-15.3-3.9c-5.3,3.2-7.1,10-3.9,15.3l9.6-5.7"/>
		<path class="st0" d="M23.7,262.5c0-2.3-0.7-4.6-2.1-6.6c-3.6-5-10.6-6.1-15.6-2.5c-5,3.6-6.1,10.6-2.5,15.6l9.1-6.6"/>
		<path class="st0" d="M23.7,237.5c0-2.6-0.9-5.3-2.8-7.4c-4.1-4.7-11.2-5.1-15.8-1c-4.7,4.1-5.1,11.2-1,15.8l8.4-7.4"/>
		<path class="st0" d="M23.7,212.5c0-3-1.2-6-3.5-8.2c-4.5-4.2-11.6-4-15.8,0.5s-4,11.6,0.5,15.8l7.7-8.2"/>
		<path class="st0" d="M23.7,187.5c0-3.3-1.5-6.6-4.3-8.8c-4.9-3.8-11.9-2.9-15.7,2s-2.9,11.9,2,15.7l6.9-8.8"/>
		<path class="st0" d="M23.7,162.5c0-3.7-1.8-7.3-5.2-9.5c-5.2-3.3-12.1-1.8-15.5,3.5S1.3,168.7,6.5,172l6-9.5"/>
		<path class="st0" d="M23.7,137.5c0-4.1-2.2-8-6.1-10c-5.5-2.8-12.2-0.6-15.1,4.9c-2.8,5.5-0.6,12.2,4.9,15.1l5.1-10"/>
		<path class="st0" d="M23.7,112.5c0-4.5-2.7-8.7-7.1-10.4c-5.8-2.3-12.3,0.5-14.5,6.3c-2.3,5.8,0.5,12.3,6.3,14.5l4.1-10.4"/>
		<path class="st0" d="M23.7,87.5c0-4.9-3.2-9.3-8.1-10.8c-6-1.7-12.2,1.7-13.9,7.6s1.7,12.2,7.6,13.9l3.1-10.8"/>
		<path class="st0" d="M23.7,62.5c0-5.3-3.7-10-9.1-11c-6.1-1.2-11.9,2.8-13.1,8.9s2.8,11.9,8.9,13.1l2.1-11"/>
		<path class="st0" d="M23.7,37.5c0-5.7-4.3-10.6-10.1-11.1C7.4,25.8,1.9,30.3,1.3,36.4s3.9,11.6,10.1,12.2l1.1-11.2"/>
	</svg>

	<svg id="knob" viewBox="0 0 34 1734">
		<style type="text/css">
			.st0{fill:none;stroke:#8ad;stroke-width:2.25;stroke-linecap:round;}
			.st1{fill:none;stroke:#254565;stroke-width:2.25;stroke-linecap:round;}
		</style>
		<path class="st0" d="M7.1,60.9c0.4,0.4,0.7,0.7,1.1,1"/>
		<path class="st0" d="M6.2,94c0.6,0.7,1.2,1.4,2,1.9"/>
		<path class="st0" d="M5.4,126.9c0.8,1.2,1.7,2.2,2.8,3"/>
		<path class="st0" d="M4.7,159.7c0.9,1.6,2.1,3.1,3.5,4.2"/>
		<path class="st0" d="M4.1,192.5c0.9,2.2,2.3,4,4.1,5.5"/>
		<path class="st0" d="M3.6,225.1c0.8,2.7,2.5,5.1,4.6,6.8"/>
		<path class="st0" d="M3.3,257.8c0.7,3.3,2.5,6.1,4.9,8.1"/>
		<path class="st0" d="M3.1,290.5c0.4,3.8,2.4,7.2,5.1,9.4"/>
		<path class="st0" d="M3,323c0,4.4,2.1,8.4,5.2,10.9"/>
		<path class="st0" d="M3.1,355.7c0,0.4-0.1,0.9-0.1,1.3c0,4.4,2.1,8.4,5.2,10.9"/>
		<path class="st0" d="M3.3,388.3C3.1,389.2,3,390.1,3,391c0,4.4,2.1,8.4,5.2,10.9"/>
		<path class="st0" d="M3.6,421c-0.4,1.3-0.6,2.6-0.6,4c0,4.4,2.1,8.4,5.2,10.9"/>
		<path class="st0" d="M4,453.7c-0.7,1.6-1,3.4-1,5.3c0,4.4,2.1,8.4,5.2,10.9"/>
		<path class="st0" d="M4.6,486.5c-1,2-1.6,4.2-1.6,6.5c0,4.4,2.1,8.4,5.2,10.9"/>
		<path class="st0" d="M5.3,519.3C3.9,521.5,3,524.2,3,527c0,4.4,2.1,8.4,5.2,10.9"/>
		<path class="st0" d="M6.3,552.2c-2,2.4-3.2,5.5-3.2,8.8c0,4.4,2.1,8.4,5.2,10.9"/>
		<path class="st0" d="M7.2,585.2c-2.5,2.5-4.1,6-4.1,9.9c0,4.4,2.1,8.4,5.2,10.9"/>
		<path class="st0" d="M8.3,618.2c-3.1,2.6-5.1,6.5-5.1,10.8c0,4.4,2.1,8.4,5.2,10.9"/>
		<path class="st0" d="M9.4,651.4c-3.7,2.5-6.2,6.8-6.2,11.6c0,4.4,2.1,8.4,5.2,10.9"/>
		<path class="st0" d="M10.5,684.7c-4.4,2.4-7.4,7-7.4,12.3c0,4.4,2.1,8.4,5.2,10.9"/>
		<path class="st0" d="M11.8,718.1c-5,2.1-8.6,7.1-8.6,12.9c0,4.4,2.1,8.4,5.2,10.9"/>
		<path class="st0" d="M13.1,751.6c-5.7,1.8-9.9,7.1-9.9,13.4c0,4.4,2.1,8.4,5.2,10.9"/>
		<path class="st0" d="M14.4,785.3c-6.4,1.3-11.2,7-11.2,13.7c0,4.4,2.1,8.4,5.2,10.9"/>
		<path class="st0" d="M15.8,819.1c-7.1,0.7-12.6,6.7-12.6,13.9c0,4.4,2.1,8.4,5.2,10.9"/>
		<path class="st0" d="M17.2,853C17.1,853,17.1,853,17.2,853c-7.7,0-14,6.3-14,14c0,4.4,2.1,8.4,5.2,10.9"/>
		<path class="st0" d="M18.5,887.1c-0.4,0-0.9-0.1-1.4-0.1c-7.7,0-14,6.3-14,14c0,4.4,2.1,8.4,5.2,10.9"/>
		<path class="st0" d="M19.9,921.3c-0.9-0.2-1.8-0.3-2.7-0.3c-7.7,0-14,6.3-14,14c0,4.4,2.1,8.4,5.2,10.9"/>
		<path class="st0" d="M21.2,955.6c-1.3-0.4-2.6-0.6-4.1-0.6c-7.7,0-14,6.3-14,14c0,4.4,2.1,8.4,5.2,10.9"/>
		<path class="st0" d="M22.5,990.1c-1.7-0.7-3.5-1.1-5.3-1.1c-7.7,0-14,6.3-14,14c0,4.4,2.1,8.4,5.2,10.9"/>
		<path class="st0" d="M23.8,1024.7c-2-1.1-4.3-1.7-6.7-1.7c-7.7,0-14,6.3-14,14c0,4.4,2.1,8.4,5.2,10.9"/>
		<path class="st0" d="M24.9,1059.4c-2.2-1.5-4.9-2.4-7.8-2.4c-7.7,0-14,6.3-14,14c0,4.4,2.1,8.4,5.2,10.9"/>
		<path class="st0" d="M25.9,1094.2c-2.4-2-5.5-3.2-8.9-3.2c-7.7,0-14,6.3-14,14c0,4.4,2.1,8.4,5.2,10.9"/>
		<path class="st0" d="M26.9,1129.1c-2.5-2.5-6-4.1-9.9-4.1c-7.7,0-14,6.3-14,14c0,4.4,2.1,8.4,5.2,10.9"/>
		<path class="st0" d="M27.8,1164.2c-2.6-3.1-6.5-5.1-10.8-5.1c-7.7,0-14,6.3-14,14c0,4.4,2.1,8.4,5.2,10.9"/>
		<path class="st0" d="M28.6,1199.2c-2.5-3.8-6.8-6.2-11.6-6.2c-7.7,0-14,6.3-14,14c0,4.4,2.1,8.4,5.2,10.9"/>
		<path class="st0" d="M29.3,1234.4c-2.4-4.4-7-7.4-12.3-7.4c-7.7,0-14,6.3-14,14c0,4.4,2.1,8.4,5.2,10.9"/>
		<path class="st0" d="M30.1,1269.7c-2.1-5.1-7.1-8.7-12.9-8.7c-7.7,0-14,6.3-14,14c0,4.4,2.1,8.4,5.2,10.9"/>
		<path class="st0" d="M30.6,1305c-1.7-5.7-7.1-10-13.4-10c-7.7,0-14,6.3-14,14c0,4.4,2.1,8.4,5.2,10.9"/>
		<path class="st0" d="M30.9,1340.3c-1.3-6.4-7-11.3-13.7-11.3c-7.7,0-14,6.3-14,14c0,4.4,2.1,8.4,5.2,10.9"/>
		<path class="st0" d="M31.1,1375.7c-0.7-7.1-6.7-12.7-13.9-12.7c-7.7,0-14,6.3-14,14c0,4.4,2.1,8.4,5.2,10.9"/>
		<path class="st0" d="M31.2,1411c0-7.7-6.3-14-14-14s-14,6.3-14,14c0,4.4,2.1,8.4,5.2,10.9"/>
		<path class="st0" d="M31.1,1446.4c0-0.5,0.1-0.9,0.1-1.4c0-7.7-6.3-14-14-14s-14,6.3-14,14c0,4.4,2.1,8.4,5.2,10.9"/>
		<path class="st0" d="M30.9,1481.8c0.2-0.9,0.3-1.8,0.3-2.8c0-7.7-6.3-14-14-14s-14,6.3-14,14c0,4.4,2.1,8.4,5.2,10.9"/>
		<path class="st0" d="M30.5,1517.1c0.4-1.3,0.6-2.7,0.6-4.1c0-7.7-6.3-14-14-14s-14,6.3-14,14c0,4.4,2.1,8.4,5.2,10.9"/>
		<path class="st0" d="M30.1,1552.4c0.7-1.7,1.1-3.5,1.1-5.4c0-7.7-6.3-14-14-14s-14,6.3-14,14c0,4.4,2.1,8.4,5.2,10.9"/>
		<path class="st0" d="M29.5,1587.7c1.1-2,1.7-4.3,1.7-6.6c0-7.7-6.3-14-14-14s-14,6.3-14,14c0,4.4,2.1,8.4,5.2,10.9"/>
		<path class="st0" d="M28.8,1622.8c1.5-2.2,2.4-4.9,2.4-7.8c0-7.7-6.3-14-14-14s-14,6.3-14,14c0,4.4,2.1,8.4,5.2,10.9"/>
		<path class="st0" d="M27.9,1657.9c2-2.4,3.2-5.6,3.2-8.9c0-7.7-6.3-14-14-14s-14,6.3-14,14c0,4.4,2.1,8.4,5.2,10.9"/>
		<path class="st0" d="M27,1693c2.5-2.5,4.1-6.1,4.1-10c0-7.7-6.3-14-14-14s-14,6.3-14,14c0,4.4,2.1,8.4,5.2,10.9"/>
		<path class="st0" d="M26,1727.9c3.1-2.5,5.2-6.5,5.2-10.9c0-7.7-6.3-14-14-14s-14,6.3-14,14c0,4.4,2.1,8.4,5.2,10.9"/>
		<path class="st1" d="M25.8,27.9C28.9,25.4,31,21.4,31,17c0-7.7-6.3-14-14-14S3,9.3,3,17c0,4.4,2.1,8.4,5.2,10.9L17,17"/>
		<path class="st1" d="M25.8,61.9c2.8-2.2,4.8-5.6,5.1-9.5c0.8-7.7-4.9-14.6-12.6-15.3S3.8,42,3.1,49.7C2.6,54,4.3,58.2,7.2,61L17,51" />
		<path class="st1" d="M25.8,95.9c2.4-2,4.3-4.8,4.9-8.2c1.5-7.6-3.4-15-11-16.5s-15,3.4-16.5,11c-0.9,4.3,0.4,8.6,3,11.7L17,85"/>
		<path class="st1" d="M25.8,129.9c2.1-1.7,3.8-4,4.6-6.8c2.2-7.4-2-15.2-9.3-17.5c-7.4-2.2-15.2,2-17.5,9.3 c-1.3,4.2-0.4,8.6,1.8,11.9L17,119"/>
		<path class="st1" d="M25.8,163.9c1.8-1.4,3.2-3.3,4.1-5.5c3-7.1-0.4-15.3-7.6-18.3S7,140.5,4.1,147.6c-1.7,4.1-1.3,8.6,0.6,12.1 L17,153"/>
		<path class="st1" d="M25.8,197.9c1.4-1.1,2.6-2.6,3.5-4.3c3.6-6.8,1.1-15.3-5.7-19s-15.3-1.1-19,5.7c-2.1,3.9-2.1,8.4-0.6,12.1 l13-5.4"/>
		<path class="st1" d="M25.8,231.9c1.1-0.9,2-1.9,2.8-3.1c4.3-6.4,2.6-15.1-3.8-19.4s-15.1-2.6-19.4,3.8c-2.5,3.7-2.9,8.1-1.8,11.9 L17,221"/>
		<path class="st1" d="M25.8,265.9c0.7-0.6,1.4-1.2,2-2c4.9-5.9,4-14.8-1.9-19.7s-14.8-4-19.7,1.9c-2.8,3.4-3.7,7.8-2.9,11.7L17,255" />
		<path class="st1" d="M25.8,299.9c0.4-0.3,0.7-0.6,1.1-1c5.5-5.4,5.5-14.3,0-19.8c-5.4-5.5-14.3-5.5-19.8,0 c-3.1,3.1-4.5,7.4-4.1,11.4l14-1.5"/>
		<path class="st1" d="M25.8,334l0.1-0.1c6-4.9,6.9-13.7,2-19.7s-13.7-6.9-19.7-2C4.7,315,3,319.1,3,323.1l14-0.1"/>
		<path class="st1" d="M25.7,367.9c5.5-4.5,6.9-12.6,2.9-18.6c-4.3-6.4-13-8.2-19.4-3.9c-3.7,2.4-5.8,6.4-6.2,10.4l14,1.2"/>
		<path class="st1" d="M25.8,401.9c5.1-4.1,6.8-11.5,3.6-17.5c-3.6-6.8-12.1-9.4-18.9-5.8c-3.9,2.1-6.4,5.8-7.2,9.7L17,391"/>
		<path class="st1" d="M25.8,435.9c4.7-3.8,6.6-10.4,4.2-16.2c-2.9-7.1-11.1-10.6-18.3-7.6c-4.1,1.7-7,5.1-8.1,8.9l13.4,4"/>
		<path class="st1" d="M25.8,469.9c4.3-3.5,6.3-9.3,4.6-14.9c-2.2-7.4-10.1-11.6-17.4-9.4c-4.2,1.3-7.4,4.4-8.9,8.1l13,5.3"/>
		<path class="st1" d="M25.8,503.9c3.9-3.2,6-8.3,5-13.6c-1.5-7.6-8.9-12.5-16.4-11.1c-4.3,0.8-7.8,3.7-9.7,7.2L17,493"/>
		<path class="st1" d="M25.8,537.9c3.5-2.9,5.6-7.4,5.2-12.2c-0.7-7.7-7.6-13.3-15.3-12.6c-4.4,0.4-8.2,2.9-10.4,6.2L17,527"/>
		<path class="st1" d="M25.9,571.9c3.2-2.6,5.2-6.5,5.2-10.8c0-7.7-6.2-14-13.9-14.1c-4.4,0-8.4,2.1-10.9,5.2l10.9,8.8"/>
		<path class="st1" d="M25.9,605.9c2.8-2.3,4.7-5.6,5.1-9.4c0.8-7.7-4.8-14.6-12.5-15.4c-4.4-0.5-8.6,1.2-11.4,4.1l9.9,9.9"/>
		<path class="st1" d="M25.9,639.9c2.5-2,4.3-4.8,4.9-8.1c1.5-7.5-3.4-15-10.9-16.5c-4.3-0.9-8.7,0.4-11.7,2.9l8.9,10.8"/>
		<path class="st1" d="M25.9,673.9c2.1-1.7,3.7-4,4.6-6.8c2.3-7.4-1.9-15.2-9.2-17.5c-4.2-1.3-8.6-0.5-11.9,1.8l7.8,11.6"/>
		<path class="st1" d="M25.9,707.9c1.8-1.4,3.2-3.3,4.1-5.5c3-7.1-0.4-15.3-7.5-18.3c-4.1-1.7-8.6-1.3-12.1,0.6L17,697"/>
		<path class="st1" d="M25.9,742c1.4-1.1,2.6-2.6,3.6-4.3c3.7-6.8,1.1-15.3-5.6-19c-3.9-2.1-8.4-2.2-12.1-0.6l5.4,12.9"/>
		<path class="st1" d="M25.9,775.9c1.1-0.9,2-1.9,2.8-3.1c4.3-6.4,2.6-15.1-3.8-19.4c-3.6-2.5-8.1-3-11.9-1.8l4.1,13.4"/>
		<path class="st1" d="M26,809.9c0.7-0.6,1.4-1.2,2-1.9c4.9-5.9,4.1-14.8-1.8-19.7c-3.4-2.8-7.8-3.8-11.7-3l2.8,13.7"/>
		<path class="st1" d="M25.9,843.9c0.4-0.3,0.7-0.6,1.1-1c5.5-5.4,5.5-14.3,0.1-19.8c-3.1-3.1-7.4-4.5-11.4-4.1l1.4,13.9"/>
		<path class="st1" d="M26,877.9c6-4.8,6.9-13.7,2.1-19.7c-2.8-3.4-6.9-5.2-10.9-5.2v14"/>
		<path class="st1" d="M26,911.9c5.5-4.5,6.9-12.5,2.9-18.6c-2.4-3.7-6.4-5.9-10.3-6.2L17.2,901"/>
		<path class="st1" d="M26,945.9c5.1-4.1,6.7-11.4,3.6-17.4c-2-3.9-5.8-6.5-9.7-7.2L17.2,935"/>
		<path class="st1" d="M26,979.9c4.7-3.8,6.5-10.3,4.2-16.2c-1.7-4.1-5.1-7-8.9-8.1L17.2,969"/>
		<path class="st1" d="M26,1013.9c4.3-3.5,6.3-9.3,4.6-14.9c-1.2-4.2-4.4-7.5-8.1-9l-5.4,12.9"/>
		<path class="st1" d="M26,1047.9c3.9-3.1,6-8.3,5-13.5c-0.8-4.3-3.6-7.9-7.2-9.7l-6.6,12.4"/>
		<path class="st1" d="M26,1081.9c3.5-2.8,5.6-7.3,5.2-12.1c-0.4-4.4-2.8-8.2-6.2-10.4l-7.8,11.6"/>
		<path class="st1" d="M25.8,1115.9c3.1-2.5,5.2-6.4,5.2-10.8s-2-8.4-5.1-10.9L17,1105"/>
		<path class="st1" d="M25.8,1149.9c2.8-2.3,4.7-5.6,5.1-9.4c0.5-4.4-1.2-8.6-4-11.4L17,1139"/>
		<path class="st1" d="M25.8,1183.9c2.5-2,4.3-4.8,5-8.1c0.9-4.3-0.3-8.7-2.9-11.7L17,1173"/>
		<path class="st1" d="M25.8,1217.9c2.1-1.7,3.7-4,4.6-6.7c1.3-4.2,0.5-8.6-1.7-12L17,1207"/>
		<path class="st1" d="M25.8,1251.9c1.7-1.4,3.2-3.2,4.1-5.4c1.7-4,1.4-8.6-0.5-12.1L17,1241"/>
		<path class="st1" d="M26,1285.9c1.4-1.1,2.6-2.5,3.5-4.2c2.1-3.9,2.2-8.4,0.7-12.1l-13,5.3"/>
		<path class="st1" d="M26,1319.9c1-0.8,2-1.8,2.8-3c2.5-3.6,3-8.1,1.9-11.9l-13.4,4"/>
		<path class="st1" d="M26,1353.9c0.7-0.6,1.3-1.2,1.9-1.9c2.8-3.4,3.8-7.8,3-11.7l-13.7,2.7"/>
		<path class="st1" d="M26,1387.9c0.3-0.3,0.7-0.6,1-0.9c3.1-3.1,4.5-7.4,4.1-11.3l-13.9,1.3"/>
		<path class="st1" d="M25.9,1421.9c3.4-2.8,5.2-6.9,5.2-10.9h-14"/>
		<path class="st1" d="M26,1455.9c3-2.4,4.8-5.9,5.1-9.5l-13.9-1.4"/>
		<path class="st1" d="M26,1489.9c2.6-2.1,4.3-5,4.9-8.1l-13.7-2.8"/>
		<path class="st1" d="M26,1523.9c2.2-1.8,3.8-4.2,4.6-6.8l-13.4-4.1"/>
		<path class="st1" d="M26,1557.9c1.8-1.5,3.3-3.4,4.1-5.5l-12.9-5.4"/>
		<path class="st1" d="M26,1591.9c1.5-1.2,2.7-2.6,3.5-4.2l-12.3-6.7"/>
		<path class="st1" d="M26,1625.9c1.1-0.9,2.1-1.9,2.8-3.1l-11.6-7.8"/>
		<path class="st1" d="M26,1659.9c0.7-0.6,1.4-1.2,2-2l-10.8-8.9"/>
		<path class="st1" d="M26,1693.9c0.4-0.3,0.7-0.6,1.1-0.9l-9.9-10"/>
		<path class="st1" d="M26,1727.9l-8.8-10.9"/>
	</svg>

	<svg id="pan-knob" viewBox="0 0 34 1734">
		<style type="text/css">
			.st0{fill:none;stroke:#8ad;stroke-width:2.25;stroke-linecap:round;}
			.st1{fill:none;stroke:#254565;stroke-width:2.25;stroke-linecap:round;}
		</style>
		<path class="st0" d="M25.8,1727.9c3.1-2.5,5.2-6.5,5.2-10.9c0-7.7-6.3-14-14-14"/>
		<path class="st0" d="M17,275c-7.7,0-14,6.3-14,14c0,0.5,0,1,0.1,1.4"/>
		<path class="st0" d="M17,309c-7.7,0-14,6.3-14,14"/>
		<path class="st0" d="M17,343c-7.2,0-13.2,5.5-13.9,12.6"/>
		<path class="st0" d="M17,377c-6.8,0-12.5,4.9-13.7,11.3"/>
		<path class="st0" d="M17,411c-6.3,0-11.7,4.2-13.4,10"/>
		<path class="st0" d="M17,445c-5.8,0-10.8,3.6-12.9,8.7"/>
		<path class="st0" d="M25.8,469.9"/>
		<path class="st0" d="M17,479c-5.3,0-10,3-12.4,7.4"/>
		<path class="st0" d="M17,513c-4.8,0-9.1,2.5-11.6,6.3"/>
		<path class="st0" d="M17,3C9.3,3,3,9.3,3,17c0,4.4,2.1,8.4,5.2,10.9"/>
		<path class="st0" d="M17,37C9.3,37,3,43.3,3,51c0,3.8,1.6,7.4,4.1,9.9"/>
		<path class="st0" d="M17,71C9.3,71,3,77.3,3,85c0,3.4,1.2,6.5,3.2,8.9"/>
		<path class="st0" d="M17,105c-7.7,0-14,6.3-14,14c0,2.9,0.9,5.6,2.4,7.8"/>
		<path class="st0" d="M17,139c-7.7,0-14,6.3-14,14c0,2.4,0.6,4.7,1.7,6.7"/>
		<path class="st0" d="M17,173c-7.7,0-14,6.3-14,14c0,1.9,0.4,3.8,1.1,5.4"/>
		<path class="st0" d="M17,207c-7.7,0-14,6.3-14,14c0,1.4,0.2,2.8,0.6,4.1"/>
		<path class="st0" d="M17,241c-7.7,0-14,6.3-14,14c0,1,0.1,1.9,0.3,2.8"/>
		<path class="st0" d="M17,547c-4.4,0-8.3,2-10.8,5.2"/>
		<path class="st0" d="M17,581c-3.8,0-7.3,1.6-9.9,4.1"/>
		<path class="st0" d="M17,615c-3.4,0-6.5,1.2-8.9,3.2"/>
		<path class="st0" d="M17,649c-2.9,0-5.6,0.9-7.8,2.4"/>
		<path class="st0" d="M17,683c-2.4,0-4.6,0.6-6.6,1.7"/>
		<path class="st0" d="M17,717c-1.9,0-3.7,0.4-5.4,1.1"/>
		<path class="st0" d="M17,751c-1.4,0-2.8,0.2-4.1,0.6"/>
		<path class="st0" d="M17,785c-0.9,0-1.9,0.1-2.7,0.3"/>
		<path class="st0" d="M17,819"/>
		<path class="st0" d="M17,887"/>
		<path class="st0" d="M17,921"/>
		<path class="st0" d="M17,955"/>
		<path class="st0" d="M17,989"/>
		<path class="st0" d="M17,1023"/>
		<path class="st0" d="M17,1057"/>
		<path class="st0" d="M25.9,1094.2c-2.4-2-5.5-3.2-8.9-3.2"/>
		<path class="st0" d="M26.9,1129.2c-2.5-2.5-6-4.1-9.9-4.1"/>
		<path class="st0" d="M27.8,1164.2c-2.6-3.1-6.5-5.2-10.8-5.2"/>
		<path class="st0" d="M28.7,1199.3c-2.5-3.8-6.8-6.3-11.6-6.3"/>
		<path class="st0" d="M29.4,1234.4c-2.4-4.4-7-7.4-12.4-7.4"/>
		<path class="st0" d="M29.9,1269.7c-2.1-5.1-7.1-8.7-12.9-8.7"/>
		<path class="st0" d="M30.4,1305c-1.7-5.8-7.1-10-13.4-10"/>
		<path class="st0" d="M30.7,1340.4c-1.3-6.4-7-11.3-13.7-11.3"/>
		<path class="st0" d="M17,819c-0.5,0-0.9,0-1.4,0.1"/>
		<path class="st0" d="M18.4,887.1c-0.5,0-0.9-0.1-1.4-0.1"/>
		<path class="st0" d="M19.7,921.3c-0.9-0.2-1.8-0.3-2.7-0.3"/>
		<path class="st0" d="M21.1,955.6c-1.3-0.4-2.7-0.6-4.1-0.6"/>
		<path class="st0" d="M22.4,990.1c-1.7-0.7-3.5-1.1-5.4-1.1"/>
		<path class="st0" d="M23.6,1024.7c-2-1.1-4.2-1.7-6.6-1.7"/>
		<path class="st0" d="M24.8,1059.4c-2.2-1.5-4.9-2.4-7.8-2.4"/>
		<path class="st0" d="M30.9,1375.7c-0.7-7.1-6.7-12.7-13.9-12.7"/>
		<path class="st0" d="M31,1411c0-7.7-6.3-14-14-14"/>
		<path class="st0" d="M30.9,1446.4c0-0.5,0.1-1,0.1-1.4c0-7.7-6.3-14-14-14"/>
		<path class="st0" d="M30.7,1481.8c0.2-0.9,0.3-1.8,0.3-2.8c0-7.7-6.3-14-14-14"/>
		<path class="st0" d="M30.4,1517.1c0.4-1.3,0.6-2.7,0.6-4.1c0-7.7-6.3-14-14-14"/>
		<path class="st0" d="M29.9,1552.5c0.7-1.7,1.1-3.5,1.1-5.4c0-7.7-6.3-14-14-14"/>
		<path class="st0" d="M29.3,1587.7c1.1-2,1.7-4.3,1.7-6.7c0-7.7-6.3-14-14-14"/>
		<path class="st0" d="M28.6,1622.9c1.5-2.2,2.4-5,2.4-7.8c0-7.7-6.3-14-14-14"/>
		<path class="st0" d="M27.8,1658c2-2.4,3.2-5.6,3.2-8.9c0-7.7-6.3-14-14-14"/>
		<path class="st0" d="M26.8,1693c2.5-2.5,4.2-6.1,4.2-10c0-7.7-6.3-14-14-14"/>
		<path class="st1" d="M17,1703c-7.7,0-14,6.3-14,14c0,4.4,2.1,8.4,5.2,10.9"/>
		<path class="st1" d="M25.8,1727.9"/>
		<path class="st1" d="M8.2,27.9"/>
		<path class="st1" d="M25.8,27.9C28.9,25.4,31,21.4,31,17c0-7.7-6.3-14-14-14"/>
		<path class="st1" d="M8.2,61.9"/>
		<path class="st1" d="M25.8,61.9C28.9,59.4,31,55.4,31,51c0-7.7-6.3-14-14-14"/>
		<path class="st1" d="M8.2,95.9"/>
		<path class="st1" d="M25.8,95.9C28.9,93.4,31,89.4,31,85c0-7.7-6.3-14-14-14"/>
		<path class="st1" d="M8.2,129.9"/>
		<path class="st1" d="M25.8,129.9c3.1-2.5,5.2-6.5,5.2-10.9c0-7.7-6.3-14-14-14"/>
		<path class="st1" d="M8.2,163.9"/>
		<path class="st1" d="M25.8,163.9c3.1-2.5,5.2-6.5,5.2-10.9c0-7.7-6.3-14-14-14"/>
		<path class="st1" d="M8.2,197.9"/>
		<path class="st1" d="M25.8,197.9c3.1-2.5,5.2-6.5,5.2-10.9c0-7.7-6.3-14-14-14"/>
		<path class="st1" d="M8.2,231.9"/>
		<path class="st1" d="M25.8,231.9c3.1-2.5,5.2-6.5,5.2-10.9c0-7.7-6.3-14-14-14"/>
		<path class="st1" d="M8.2,265.9"/>
		<path class="st1" d="M25.8,265.9c3.1-2.5,5.2-6.5,5.2-10.9c0-7.7-6.3-14-14-14"/>
		<path class="st1" d="M25.8,299.9c3.1-2.5,5.2-6.5,5.2-10.9c0-7.7-6.3-14-14-14"/>
		<path class="st1" d="M25.8,333.9c3.1-2.5,5.2-6.5,5.2-10.9c0-7.7-6.3-14-14-14"/>
		<path class="st1" d="M25.8,367.9c3.1-2.5,5.2-6.5,5.2-10.9c0-7.7-6.3-14-14-14"/>
		<path class="st1" d="M25.8,401.9c3.1-2.5,5.2-6.5,5.2-10.9c0-7.7-6.3-14-14-14"/>
		<path class="st1" d="M25.8,435.9c3.1-2.5,5.2-6.5,5.2-10.9c0-7.7-6.3-14-14-14"/>
		<path class="st1" d="M25.8,469.9c3.1-2.5,5.2-6.5,5.2-10.9c0-7.7-6.3-14-14-14"/>
		<path class="st1" d="M25.8,503.9c3.1-2.5,5.2-6.5,5.2-10.9c0-7.7-6.3-14-14-14"/>
		<path class="st1" d="M25.8,537.9c3.1-2.5,5.2-6.5,5.2-10.9c0-7.7-6.3-14-14-14"/>
		<path class="st1" d="M25.8,571.9c3.1-2.5,5.2-6.5,5.2-10.9c0-7.7-6.3-14-14-14"/>
		<path class="st1" d="M25.8,605.9c3.1-2.5,5.2-6.5,5.2-10.9c0-7.7-6.3-14-14-14"/>
		<path class="st1" d="M25.8,639.9c3.1-2.5,5.2-6.5,5.2-10.9c0-7.7-6.3-14-14-14"/>
		<path class="st1" d="M25.8,673.9c3.1-2.5,5.2-6.5,5.2-10.9c0-7.7-6.3-14-14-14"/>
		<path class="st1" d="M25.8,707.9c3.1-2.5,5.2-6.5,5.2-10.9c0-7.7-6.3-14-14-14"/>
		<path class="st1" d="M25.8,741.9c3.1-2.5,5.2-6.5,5.2-10.9c0-7.7-6.3-14-14-14"/>
		<path class="st1" d="M25.8,775.9c3.1-2.5,5.2-6.5,5.2-10.9c0-7.7-6.3-14-14-14"/>
		<path class="st1" d="M25.8,809.9c3.1-2.5,5.2-6.5,5.2-10.9c0-7.7-6.3-14-14-14"/>
		<path class="st1" d="M25.8,843.9c3.1-2.5,5.2-6.5,5.2-10.9c0-7.7-6.3-14-14-14"/>
		<path class="st1" d="M25.8,877.9c3.1-2.5,5.2-6.5,5.2-10.9c0-7.7-6.3-14-14-14s-14,6.3-14,14c0,4.4,2.1,8.4,5.2,10.9"/>
		<path class="st1" d="M17,887c-7.7,0-14,6.3-14,14c0,4.4,2.1,8.4,5.2,10.9"/>
		<path class="st1" d="M17,921c-7.7,0-14,6.3-14,14c0,4.4,2.1,8.4,5.2,10.9"/>
		<path class="st1" d="M17,955c-7.7,0-14,6.3-14,14c0,4.4,2.1,8.4,5.2,10.9"/>
		<path class="st1" d="M17,989c-7.7,0-14,6.3-14,14c0,4.4,2.1,8.4,5.2,10.9"/>
		<path class="st1" d="M17,1023c-7.7,0-14,6.3-14,14c0,4.4,2.1,8.4,5.2,10.9"/>
		<path class="st1" d="M17,1057c-7.7,0-14,6.3-14,14c0,4.4,2.1,8.4,5.2,10.9"/>
		<path class="st1" d="M17,1091c-7.7,0-14,6.3-14,14c0,4.4,2.1,8.4,5.2,10.9"/>
		<path class="st1" d="M17,1125c-7.7,0-14,6.3-14,14c0,4.4,2.1,8.4,5.2,10.9"/>
		<path class="st1" d="M17,1159c-7.7,0-14,6.3-14,14c0,4.4,2.1,8.4,5.2,10.9"/>
		<path class="st1" d="M17,1193c-7.7,0-14,6.3-14,14c0,4.4,2.1,8.4,5.2,10.9"/>
		<path class="st1" d="M17,1227c-7.7,0-14,6.3-14,14c0,4.4,2.1,8.4,5.2,10.9"/>
		<path class="st1" d="M17,1261c-7.7,0-14,6.3-14,14c0,4.4,2.1,8.4,5.2,10.9"/>
		<path class="st1" d="M17,1295c-7.7,0-14,6.3-14,14c0,4.4,2.1,8.4,5.2,10.9"/>
		<path class="st1" d="M17,1329c-7.7,0-14,6.3-14,14c0,4.4,2.1,8.4,5.2,10.9"/>
		<path class="st1" d="M17,1363c-7.7,0-14,6.3-14,14c0,4.4,2.1,8.4,5.2,10.9"/>
		<path class="st1" d="M17,1397c-7.7,0-14,6.3-14,14c0,4.4,2.1,8.4,5.2,10.9"/>
		<path class="st1" d="M17,1431c-7.7,0-14,6.3-14,14c0,4.4,2.1,8.4,5.2,10.9"/>
		<path class="st1" d="M17,1465c-7.7,0-14,6.3-14,14c0,4.4,2.1,8.4,5.2,10.9"/>
		<path class="st1" d="M17,1499c-7.7,0-14,6.3-14,14c0,4.4,2.1,8.4,5.2,10.9"/>
		<path class="st1" d="M17,1533c-7.7,0-14,6.3-14,14c0,4.4,2.1,8.4,5.2,10.9"/>
		<path class="st1" d="M17,1567c-7.7,0-14,6.3-14,14c0,4.4,2.1,8.4,5.2,10.9"/>
		<path class="st1" d="M17,1601c-7.7,0-14,6.3-14,14c0,4.4,2.1,8.4,5.2,10.9"/>
		<path class="st1" d="M17,1635c-7.7,0-14,6.3-14,14c0,4.4,2.1,8.4,5.2,10.9"/>
		<path class="st1" d="M17,1669c-7.7,0-14,6.3-14,14c0,4.4,2.1,8.4,5.2,10.9"/>
		<line class="st1" x1="17" y1="1717" x2="25.8" y2="1727.9"/>
		<line class="st1" x1="17" y1="17" x2="8.2" y2="27.9"/>
		<path class="st1" d="M17,51l-9.9,9.9c0.4,0.4,0.7,0.7,1.1,1"/>
		<path class="st1" d="M17,85L6.2,93.9c0.6,0.7,1.3,1.4,2,2"/>
		<path class="st1" d="M17,119l-11.6,7.8c0.8,1.2,1.7,2.2,2.8,3.1"/>
		<path class="st1" d="M17,153l-12.3,6.7c0.9,1.7,2.1,3.1,3.5,4.2"/>
		<path class="st1" d="M17,187l-12.9,5.4c0.9,2.2,2.3,4.1,4.1,5.5"/>
		<path class="st1" d="M17,221l-13.4,4.1c0.8,2.7,2.5,5.1,4.6,6.8"/>
		<path class="st1" d="M17,255l-13.7,2.8c0.7,3.3,2.5,6.1,4.9,8.1"/>
		<path class="st1" d="M17,289l-13.9,1.4c0.4,3.8,2.4,7.2,5.1,9.5"/>
		<path class="st1" d="M17,323H3c0,4.4,2.1,8.4,5.2,10.9"/>
		<path class="st1" d="M17,357l-13.9-1.4C3,356,3,356.5,3,357c0,4.4,2.1,8.4,5.2,10.9"/>
		<path class="st1" d="M17,391l-13.7-2.8C3.1,389.1,3,390.1,3,391c0,4.4,2.1,8.4,5.2,10.9"/>
		<path class="st1" d="M17,425l-13.4-4c-0.4,1.3-0.6,2.6-0.6,4c0,4.4,2.1,8.4,5.2,10.9"/>
		<path class="st1" d="M17,459l-12.9-5.3C3.4,455.4,3,457.2,3,459c0,4.4,2.1,8.4,5.2,10.9"/>
		<path class="st1" d="M17,493l-12.4-6.6c-1,2-1.6,4.2-1.6,6.6c0,4.4,2.1,8.4,5.2,10.9"/>
		<path class="st1" d="M17,527l-11.6-7.7C3.9,521.5,3,524.2,3,527c0,4.4,2.1,8.4,5.2,10.9"/>
		<path class="st1" d="M17,561l-10.8-8.8c-2,2.4-3.2,5.5-3.2,8.8c0,4.4,2.1,8.4,5.2,10.9"/>
		<path class="st1" d="M17,595l-9.9-9.9c-2.5,2.5-4.1,6-4.1,9.9c0,4.4,2.1,8.4,5.2,10.9"/>
		<path class="st1" d="M17,629l-8.9-10.8C5,620.8,3,624.7,3,629c0,4.4,2.1,8.4,5.2,10.9"/>
		<path class="st1" d="M17,663l-7.8-11.6C5.5,653.9,3,658.2,3,663c0,4.4,2.1,8.4,5.2,10.9"/>
		<path class="st1" d="M17,697l-6.6-12.3C6,687,3,691.7,3,697c0,4.4,2.1,8.4,5.2,10.9"/>
		<path class="st1" d="M17,731l-5.4-12.9c-5,2.1-8.6,7.1-8.6,12.9c0,4.4,2.1,8.4,5.2,10.9"/>
		<path class="st1" d="M17,765l-4.1-13.4C7.2,753.4,3,758.7,3,765c0,4.4,2.1,8.4,5.2,10.9"/>
		<path class="st1" d="M17,799l-2.7-13.7C7.9,786.6,3,792.3,3,799c0,4.4,2.1,8.4,5.2,10.9"/>
		<path class="st1" d="M17,833l-1.4-13.9C8.6,819.8,3,825.8,3,833c0,4.4,2.1,8.4,5.2,10.9"/>
		<line class="st1" x1="17" y1="867" x2="17" y2="853"/>
		<path class="st1" d="M17,901l1.4-13.9c7.1,0.7,12.6,6.7,12.6,13.9c0,4.4-2.1,8.4-5.2,10.9"/>
		<path class="st1" d="M17,935l2.7-13.7c6.4,1.3,11.3,7,11.3,13.7c0,4.4-2.1,8.4-5.2,10.9"/>
		<path class="st1" d="M17,969l4.1-13.4c5.7,1.8,9.9,7.1,9.9,13.4c0,4.4-2.1,8.4-5.2,10.9"/>
		<path class="st1" d="M17,1003l5.4-12.9c5.1,2.1,8.6,7.1,8.6,12.9c0,4.4-2.1,8.4-5.2,10.9"/>
		<path class="st1" d="M17,1037l6.6-12.3c4.4,2.4,7.4,7,7.4,12.3c0,4.4-2.1,8.4-5.2,10.9"/>
		<path class="st1" d="M17,1071l7.8-11.6c3.7,2.5,6.2,6.8,6.2,11.6c0,4.4-2.1,8.4-5.2,10.9"/>
		<path class="st1" d="M17,1105l8.9-10.8c3.1,2.6,5.1,6.5,5.1,10.8c0,4.4-2.1,8.4-5.2,10.9"/>
		<path class="st1" d="M17,1139l9.9-9.9c2.5,2.5,4.1,6,4.1,9.9c0,4.4-2.1,8.4-5.2,10.9"/>
		<path class="st1" d="M17,1173l10.8-8.8c2,2.4,3.2,5.5,3.2,8.8c0,4.4-2.1,8.4-5.2,10.9"/>
		<path class="st1" d="M17,1207l11.6-7.7c1.5,2.2,2.4,4.9,2.4,7.7c0,4.4-2.1,8.4-5.2,10.9"/>
		<path class="st1" d="M17,1241l12.4-6.6c1,2,1.6,4.2,1.6,6.6c0,4.4-2.1,8.4-5.2,10.9"/>
		<path class="st1" d="M17,1275l12.9-5.3c0.7,1.6,1.1,3.4,1.1,5.3c0,4.4-2.1,8.4-5.2,10.9"/>
		<path class="st1" d="M17,1309l13.4-4c0.4,1.3,0.6,2.6,0.6,4c0,4.4-2.1,8.4-5.2,10.9"/>
		<path class="st1" d="M17,1343l13.7-2.7l0,0c0.2,0.9,0.3,1.8,0.3,2.7c0,4.4-2.1,8.4-5.2,10.9"/>
		<path class="st1" d="M17,1377l13.9-1.3l0,0c0,0.4,0.1,0.9,0.1,1.3c0,4.4-2.1,8.4-5.2,10.9"/>
		<path class="st1" d="M17,1411h14c0,4.4-2.1,8.4-5.2,10.9"/>
		<path class="st1" d="M17,1445l13.9,1.4c-0.4,3.8-2.4,7.2-5.1,9.5"/>
		<path class="st1" d="M17,1479l13.7,2.8c-0.7,3.3-2.5,6.1-4.9,8.1"/>
		<path class="st1" d="M17,1513l13.4,4.1c-0.8,2.7-2.5,5.1-4.6,6.8"/>
		<path class="st1" d="M17,1547l12.9,5.4c-0.9,2.2-2.3,4.1-4.1,5.5"/>
		<path class="st1" d="M17,1581l12.3,6.7c-0.9,1.7-2.1,3.1-3.5,4.2"/>
		<path class="st1" d="M17,1615l11.6,7.8c-0.8,1.2-1.7,2.2-2.8,3.1"/>
		<path class="st1" d="M17,1649l10.8,8.9l0,0c-0.6,0.7-1.3,1.4-2,2"/>
		<path class="st1" d="M17,1683l9.8,10l0,0c-0.3,0.3-0.7,0.6-1,0.9"/>
	</svg>

</svg>