<svg xmlns="http://www.w3.org/2000/svg" width="0" height="0">

	<svg id="negative-corner" viewBox="0 0 500 500">
		<path fill="#294a6b" d="M0,500h500V0C500,276.1,276.1,500,0,500z"/>
	</svg>

	<svg id="icon-sounds" viewBox="0 0 500 500">
		<path fill="#182c40" d="M468.7,28.4v320.2c0,37.8-42.8,68.4-95.7,68.4s-95.7-30.6-95.7-68.4c0-37.8,42.8-68.4,95.7-68.4c26.8,0,51,7.9,68.4,20.5 V143.5l-218.7,48.6v211.1c0,37.8-42.8,68.4-95.7,68.4S31.3,441,31.3,403.3c0-37.8,42.8-68.4,95.7-68.4c26.8,0,51,7.9,68.4,20.5V88.8 L468.7,28.4z"/>
	</svg>

	<svg id="icon-drums" viewBox="0 0 500 500">
		<path fill="#182c40" d="M288.7,97.7c0-13.5-46.8-24.7-107.5-26.6V35h-35.8v36.1C84.6,73,37.8,84.2,37.8,97.7c0,13.5,46.7,24.7,107.5,26.6v72H37.8
			v35.8h35.8v71.7H37.8v35.8h107.5v78.5l-71.7,28.7L87,465l76.3-19.5l76.3,19.5l13.3-18.3l-71.7-28.7v-78.5h49.9
			c-4.4-17.2-7.1-35.2-7.1-53.8c0-32,7.2-62.3,19.8-89.6h-62.6v-72C241.9,122.4,288.7,111.2,288.7,97.7z"/>
		<path fill="#182c40" d="M462.2,110.3c-11.6-2.4-23.6-3.6-35.8-3.6c-98.9,0-179.2,80.2-179.2,179.2c0,99,80.2,179.2,179.2,179.2
			c12.3,0,24.3-1.2,35.8-3.6V110.3z"/>
	</svg>

	<svg id="icon-instruments" viewBox="0 0 500 500">
		<path fill="#182c40" d="M267,358.6c0.3-11.2,4.2-20.8,11.2-27.8c5.7-5.7,31.9-8.2,53.4-29.8c11.2-11.2,15-26.6,11.5-45.4
			c-3.5-13.1-11.5-27.5-25.3-42.6l90.2-94.7c20.5,1.1,48.4-27.9,61.4-42.2C464,56.8,443,35.8,423.7,30.3
			c-14.8,12.2-42.5,42.6-41.9,61.8l-95,89.9c-15.4-14.1-29.8-22.1-42.2-25c-18.9-3.5-34.6,0-46.1,11.5c-21.9,21.9-23.5,47.2-29.4,53.1
			c-7,7-16.6,10.9-27.8,11.2c-59.7,3.2-111.3,39.3-110.7,103c0,44.7,88.9,133.1,133.8,133.8C227.1,469.1,263.8,418,267,358.6z
			 M262.6,236.2c13.5,13.5,13.5,35.4,0,48.9c-13.5,13.5-35.4,13.5-48.9,0c-13.5-13.5-13.5-35.4,0-48.9S249.1,222.7,262.6,236.2z
			 M159.4,398.9l-59.5-59.5l10.9-10.9l59.5,59.5L159.4,398.9z"/>
	</svg>

	<svg id="icon-audio_fx" viewBox="0 0 500 500">
		<path fill="#182c40" d="M438.3,193.4c0-10,8.1-18.1,18.1-18.1c10,0,18.1,8.1,18.1,18.1v103.5c0,10-8.1,18.1-18.1,18.1c-10,0-18.1-8.1-18.1-18.1
			V193.4z M379.5,164.5c0-10,8.1-18.1,18.1-18.1s18.1,8.1,18.1,18.1v170.9c0,10-8.1,18.1-18.1,18.1s-18.1-8.1-18.1-18.1V164.5z
			 M320.6,68.3c0-10,8.1-18.1,18.1-18.1c10,0,18.1,8.1,18.1,18.1v363.5c0,10-8.1,18.1-18.1,18.1s-18.1-8.1-18.1-18.1V68.3z
			 M261.8,154.9c0-10,8.1-18.1,18.1-18.1s18.1,8.1,18.1,18.1v190.2c0,10-8.1,18.1-18.1,18.1s-18.1-8.1-18.1-18.1V154.9z M202.9,116.4
			c0-10,8.1-18.1,18.1-18.1c10,0,18.1,8.1,18.1,18.1V374c0,10-8.1,18.1-18.1,18.1c-10,0-18.1-8.1-18.1-18.1V116.4z M143.3,164.5
			c0-10,8.1-18.1,18.1-18.1c10,0,18.1,8.1,18.1,18.1v161.3c0,10-8.1,18.1-18.1,18.1s-18.1-8.1-18.1-18.1V164.5z M84.4,88.3
			c0-10,8.1-18.1,18.1-18.1c10,0,18.1,8.1,18.1,18.1v313.9c0,10-8.1,18.1-18.1,18.1s-18.1-8.1-18.1-18.1
			C84.4,402.1,84.4,88.3,84.4,88.3z M25.6,184.9c0-10,8.1-18.1,18.1-18.1s18.1,8.1,18.1,18.1v130.2c0,10-8.1,18.1-18.1,18.1
			s-18.1-8.1-18.1-18.1V184.9z"/>
	</svg>

	<svg id="icon-arrangement" viewBox="0 0 500 500">
		<rect fill="#182c40" x="58" y="58" width="385" height="100"/>
		<rect fill="#182c40" x="58" y="200" width="385" height="100"/>
		<rect fill="#182c40" x="58" y="342" width="385" height="100"/>
	</svg>
	
	<svg id="icon-session" viewBox="0 0 500 500">
		<rect fill="#182c40" x="58" y="63" width="100" height="375"/>
		<rect fill="#182c40" x="200" y="63" width="100" height="375"/>
		<rect fill="#182c40" x="342" y="63" width="100" height="375"/>
	</svg>

	<svg id="icon-arrow_up" viewBox="0 0 500 500">
		<path fill="#182c40" d="M61.6,412.7h376.7c14.4,0,23.2-15.7,15.7-28L265.7,54.1c-7.2-11.7-24.2-11.7-31.4,0L46,384.7
			C38.5,396.9,47.3,412.7,61.6,412.7z"/>
	</svg>

</svg>